<?xml version="1.0" encoding="UTF-8"?>
<!DOCTYPE svg PUBLIC "-//W3C//DTD SVG 1.1//EN" "http://www.w3.org/Graphics/SVG/1.1/DTD/svg11.dtd">
<!-- Creator: CorelDRAW Standard 2020 (Versión de evaluación) -->
<svg xmlns="http://www.w3.org/2000/svg" xml:space="preserve" width="200px" height="200px" version="1.1" style="shape-rendering:geometricPrecision; text-rendering:geometricPrecision; image-rendering:optimizeQuality; fill-rule:evenodd; clip-rule:evenodd"
viewBox="0 0 200 200"
 xmlns:xlink="http://www.w3.org/1999/xlink"
 xmlns:xodm="http://www.corel.com/coreldraw/odm/2003">
 <defs>
  <style type="text/css">
   <![CDATA[
    .fil0 {fill:none}
    .fil1 {fill:#076737}
    .fil8 {fill:#295039}
    .fil3 {fill:#4C6E5B}
    .fil13 {fill:#769788}
    .fil6 {fill:#889838}
    .fil9 {fill:#8AB8A3}
    .fil12 {fill:#9BA469}
    .fil14 {fill:#AD4E51}
    .fil5 {fill:#B2EACD}
    .fil16 {fill:#C77778}
    .fil7 {fill:#CB5510}
    .fil4 {fill:#CB972F}
    .fil15 {fill:#CFB16F}
    .fil2 {fill:#E7E9C8}
    .fil11 {fill:#EBCF92}
    .fil10 {fill:#F5F5F3}
   ]]>
  </style>
 </defs>
 <g id="Capa_x0020_1">
  <metadata id="CorelCorpID_0Corel-Layer"/>
  <rect class="fil0" width="200" height="200"/>
  <g id="_1018652320">
   <path class="fil1" d="M92.422 82.372l-0.988 0.15c-0.809,1.892 -0.31,0.91 -1.639,2.568 -1.569,1.959 -0.027,0.77 -2.082,1.988 0.251,7.152 0.491,4.926 3.107,7.214 1.438,1.259 0.128,0.876 3.322,4.439 1.001,1.117 0.125,-0.253 0.746,1.145 1.876,0.204 2.541,-0.016 4.037,-1.29 0.26,5.277 -3.048,9.811 -6.313,11.994 -0.227,-1.946 -0.368,-3.121 -1.27,-4.52 -4.336,1.297 -4.024,6.804 -3.147,11.003l1.854 2.205 1.94 0.551c1.355,-0.782 1.176,-0.843 1.943,-2.244l0.839 0.636c1.591,0.886 0.737,-0.092 3.68,0.321 -2.018,5.753 -3.133,3.441 2.043,8.896 -0.69,2.677 -3.244,5.464 -5.471,1.72 -0.641,-2.191 -1.419,-1.645 -2.969,-3.016 0.046,-1.67 0.263,-2.005 0.58,-3.268 -0.152,-0.132 -0.344,-0.297 -0.457,-0.392 -0.113,-0.095 -0.334,-0.285 -0.459,-0.39l-1.387 -1.12 -0.447 5.528c0.508,0.503 0.473,0.488 1.074,1.247l2.569 3.743c-7.284,-0.273 -19.443,-1.753 -22.909,3.718 -0.363,4.375 2.91,6.126 7.093,7.682 4.964,1.848 9.102,2.183 10.964,2.926 1.175,0.469 0.645,0.184 1.342,0.708l5.043 0.301 2.104 -0.268c0.489,1.039 0.482,2.031 0.949,3.186 1.872,0.077 4.064,0.445 5.372,-0.489 2.108,-1.503 0.374,-2.588 0.16,-2.982 3.002,-0.627 2.612,-0.232 3.771,0.593 -0.277,1.768 -0.022,1.321 -0.88,2.276l0.97 -3.237c-0.79,-0.08 -2.095,-0.071 -2.585,-0.181l-1.708 -0.615c-0.155,-0.061 -0.383,-0.163 -0.552,-0.283 7.901,0.279 11.99,-2.879 8.669,-10.873 -0.505,-1.215 -6.945,-9.417 -3.135,-16.307 1.203,3.989 -0.388,5.662 0.631,7.972 3.004,-6.825 -3.406,-11.312 -0.731,-18.965 0.115,0.138 0.207,0.217 0.242,0.482 0.085,0.651 2.573,4.783 3.401,16.961 1.301,-8.1 -1.427,-8.792 -1.53,-15.51l2.361 0.03c1.182,-1.433 0.037,0.662 0.657,-1.486 0.693,-2.404 -0.563,0.83 0.133,-0.907 1.507,1.015 1.02,0.603 2.195,2.634l0.706 1.926c1.597,-1.049 1.12,1.301 1.366,-1.197 0.644,1.184 1.239,3.065 3.067,2.778l-1.603 -3.819c-2.107,-1.126 -0.42,0.263 -1.962,-1.769 -0.363,-0.478 -0.849,-1.178 -1.092,-1.603 -1.31,-2.285 -0.901,-0.463 -0.56,-2.199l0.681 -0.994c-0.816,-0.994 -2.159,-2.301 -2.583,-3.356 3.721,0.158 1.911,1.852 5.571,2.913l0.249 1.954c1.638,1.409 2.447,2.355 3.685,3.49l1.03 -0.257c-0.83,-2.628 -3.25,-7.788 -5.261,-9.377 -2.275,-1.797 -6.784,-2.423 -9.919,-4.619l2.63 -0.218 4.211 0.485 -1.629 -2.708c-2.556,-2.428 0.28,1.066 -1.266,-0.93l2.507 -0.813 2.057 0.038c-1.391,-2.319 0.621,-1.051 -2.098,-1.509 -1.106,-0.185 -2.013,1.239 -7.5,-0.028 1.027,-2.023 0.284,-0.97 2.288,-1.939 2.235,-1.081 0.755,0.711 1.987,-1.085 -1.678,0.41 -1.244,0.639 -3.328,0.292 -3.281,-0.545 -1.163,-0.371 -2.085,-0.955l-2.569 -0.541c-5.182,-0.352 -5.671,-2.24 -11.712,-0.434z"/>
   <path class="fil2" d="M138.352 83.095c-1.663,0.434 -2.271,0.812 -4.428,0.511l0.082 -2.926c2.667,-0.731 3.271,-0.075 4.346,2.415zm-3.376 -10.822c-0.153,1.103 -0.143,1.415 -0.45,2.612 -0.706,2.755 -3.893,4.395 -5.194,1.772 -2.937,0.522 -1.789,0.585 -4.44,1.714l2.431 -1.813 0 -4.456c2.319,-1.407 5.421,-2.028 8.785,-1.013 -0.657,2.11 0.044,0.381 -1.132,1.184zm-24.207 -4.749c-1.618,-1.6 -1.443,-2.559 -1.461,-4.511 6.963,-1.365 4.586,3.166 4.23,4.44l-0.644 -1.883c-0.325,3.128 0.764,1.825 -2.125,1.954zm30.244 2.663c-2.604,-1.466 -1.446,-1.7 -4.184,-3.928l-5.672 0.588c2.275,-1.376 1.911,-1.279 5.495,-1.629 0.642,-10.591 8.109,-8.091 15.551,-4.426l2.839 1.193 -2.087 1.521c-0.394,0.272 -1.292,0.873 -1.493,1.049 -5.407,4.747 0.168,5.386 -10.449,5.632zm-9.77 -10.891c-1.378,2.837 -4.78,9.639 -9.135,4.589l-1.246 -0.973c-0.059,-0.214 -0.269,-0.202 -0.38,-0.325 -1.213,0.252 -1.348,0.409 -2.506,0.719 -3.355,0.899 -0.797,0.529 -2.119,0.013 0.742,-0.89 -0.076,-0.369 1.53,-1.271 4.415,-2.476 0.411,-1.302 3.469,-5.26 1.685,-3.203 7.161,-1.531 10.024,-0.393l3.116 1.126 -2.753 1.775zm-13.354 -2.834c-0.95,3.477 -1.776,4.466 -5.402,4.359 -1.571,-1.628 -1.065,-0.76 -1.808,-2.683 0.991,-3.248 4.212,-2.553 7.21,-1.676zm-21.073 -6.238c-0.002,-0.003 -1.348,-2.01 0.496,-3.588 0.907,-0.779 2.089,-0.781 3.46,-1.001 0.309,2.873 1.598,5.11 -2.252,5.126 -1.213,0.004 -1.623,-0.503 -1.704,-0.537zm-6.966 -5.48c0.498,-5.046 3.139,-6.804 7.603,-7.619 -0.165,4.233 1.12,3.173 -0.35,8.058 -1.739,0.718 -2.467,1.009 -3.833,0.943l-2.925 -1.19c-0.072,-0.212 -0.326,-0.139 -0.495,-0.192zm41.874 -19.225c0.209,3.841 2.115,3.869 0.912,8.659 -1.6,1.354 -1.957,0.813 -2.875,1.502 -1.525,1.144 -0.359,0.427 -1.372,2.273 -0.052,-3.283 -0.203,-2.507 -1.198,-4.026 -3.061,-4.674 2.291,-7.766 4.533,-8.408zm-5.849 1.273l-0.881 0.859c-2.096,2.044 -0.128,-0.881 -1.705,1.991 0.285,2.059 -0.818,0.564 0.939,1.005 0.084,0.021 0.657,-0.184 0.79,-0.354l0.092 4.088c-2.843,-0.25 -5.754,1.005 -7.09,3.456 0.213,-0.115 1.675,-0.772 1.815,-0.886 0.151,0.15 0.355,0.346 0.456,0.449 0.093,0.091 0.318,0.308 0.415,0.406l0.834 0.892c0.616,-2.132 0.414,-1.773 2.18,-3.19 2.67,1.085 2.167,1.396 3.711,2.559 -0.311,4.615 -0.255,1.787 -1.742,4.53 -1.47,0.397 2.406,1.468 -2.262,-1.02 0.216,5.196 0.729,5.434 -2.294,7.376 -0.039,1.227 0.185,0.291 -0.756,0.38l-0.796 0.603c-1.636,1.63 -2.205,2.76 -1.045,4.801 -3.002,-0.619 -1.64,0.374 -1.466,-3.697 -3.02,-1.55 -4.088,-1.781 -3.76,-6.498 -0.182,0.104 -0.442,0.075 -0.534,0.334 -0.332,0.938 -0.635,0.389 -0.968,0.548 -1.307,0.627 0.85,-0.016 -1.116,0.415l0.467 4.984c-1.618,0.514 -2.456,1.144 -4.061,-0.452 -1.24,-0.192 -0.667,0.281 -0.865,-0.728 -1.022,-0.593 -0.488,1.074 -2.029,-1.753 -0.836,-1.536 -0.418,-1.185 -0.449,-2.822l6.363 0.128c-1.081,-1.648 1.279,-1.296 -1.011,-1.304l0.994 -3.135c-0.031,-0.106 -0.099,-0.298 -0.146,-0.409 -0.947,-2.217 0.189,-1.129 -1.521,-2.078 -0.225,1.43 -0.259,2.838 -1.675,3.694 -1.764,1.066 -2.205,0.627 -4.406,0.155 0.568,2.355 1.379,2.423 -1.345,2.581l-2.158 0.075c1.21,-2.682 0.726,-4.277 0.105,-6.881 -0.471,-1.977 0.116,-0.307 -0.49,-1.751 -7.522,-1.739 -12.117,5.436 -8.615,8.601l0.058 3.675c0.485,1.584 -0.01,0.617 0.786,1.788l4.51 -0.565c0.194,0.328 0.749,1.278 1.155,1.621 1.785,1.51 1.981,0.63 3.701,1.047 -0.563,1.808 -3.616,4.16 -0.264,7.551l-0.29 -3.497c1.521,-1.235 2.541,-3.385 3.492,-4.74 1.784,1.282 0.18,-0.003 1.428,1.24 4.995,4.975 3.118,6.702 -0.372,8.839l-0.289 2.798c1.739,1.932 0.357,-0.914 0.544,1.582l-0.361 4.239c0.863,-0.739 0.278,0.409 1.302,-1.466 0.289,-0.528 0.456,-1.405 0.633,-2.027 1.416,1.124 2.697,1.346 2.946,2.812 0.885,0.664 3.209,0.319 1.226,3.294 -1.657,2.484 -1.965,-1.46 -1.428,3.852 -0.952,-2.647 -2.604,-2.111 -2.846,-2.85 -0.083,-0.254 -0.31,-0.242 -0.458,-0.372 -1.568,-0.6 -1.091,-1.11 -1.08,-3.12 -1.14,1.414 -1.575,-2.308 -1.106,2.836l-2.056 0.089 0.773 0.711c1.531,1.33 2.66,1.6 2.083,3.9 -0.661,2.643 0.097,0.481 -0.987,1.242 1.225,2.999 0.755,0.642 1.184,3.583l2.569 0.541c4.409,-1.174 -2.223,-3.467 6.005,-4.63l-1.089 -3.161 0.023 -1.775 1.705 -0.369 3.837 -1.198c1.241,-2.417 0.379,-2.084 2.9,-3.343 3.765,0.035 2.616,-1.597 4.335,-1.688 0.301,1.775 0.506,3.848 0.235,5.641 -0.042,0.277 -0.552,2.023 -0.741,2.479 -0.062,0.152 -0.154,0.339 -0.214,0.476l-0.752 1.465 1.069 0.607c0.09,0.054 0.344,0.199 0.427,0.249 0.089,0.052 0.301,0.178 0.449,0.271 -1.517,0.485 -0.712,0.284 -1.486,1.497l4.07 -0.492 -0.61 3.591c-0.696,2.882 -0.789,0.514 3.416,2.068l6.815 0.772 1.255 -2.712c2.141,-0.415 4.452,0.199 6.513,0.942 -2.031,-0.39 -1.469,-0.153 -1.652,1.946l3.218 1.657c-0.248,-2.715 0.341,-2.394 2.904,-2.561 -2.136,-0.307 -1.757,-0.027 -3.049,-1.238 1.55,-1.159 0.342,-0.488 2.291,-0.995 -0.342,-0.448 -0.891,-1.201 -1.172,-1.668 -2.714,0.418 -4.227,1.783 -7.006,-0.007l-1.785 -2.452c-4.401,0.774 -3.107,0.205 -3.997,-0.662l4.915 -2.818c1.269,-4.634 5.237,-2.224 8.769,-1.095 -0.117,-2.275 0.746,-1.071 -0.612,-2.311 3.502,0.278 -1.041,0.427 2.954,1.462 9.603,2.489 6.47,0.385 7.002,-0.345 -2.941,0.406 -3.694,-0.28 -5.678,-1.558l3.95 -0.95c-1.328,-0.487 -0.981,0.283 -3.628,-0.161 -0.708,-6.005 3.833,-3.695 8.018,-3.87 -0.563,3.558 -1.329,3.344 -2.355,6.237 2.113,-0.245 1.925,1.368 3.807,-6.092l-1.126 -0.687c-0.135,-0.074 -0.364,-0.21 -0.527,-0.294l-3.599 -1.794c-1.267,-1.415 0.491,-1.772 -2.275,-3.759l-5.121 -2.531c0.572,-2.864 0.517,-0.814 2.452,-3.242l1.838 -4.272c1.562,-6.298 0.277,-2.952 -0.817,-3.717 -0.515,2.106 -1.09,2.533 -2.011,5.016 -1.262,3.406 -0.966,1.958 -2.585,4.011 -1.139,1.184 1.249,0.401 -2.287,1.268 -0.934,0.23 -1.602,0.1 -2.541,0.038l-1.875 -0.804c-0.011,-0.099 -0.033,-0.171 -0.075,-0.223l-3.701 1.029c0.553,-3.325 0.936,0.145 1.871,-3.021 0.054,-0.183 0.091,-0.345 0.123,-0.546l-0.303 -3.688 -2.628 0.607c-3.696,0.736 -4.199,-0.317 -7.348,-1.18 -1,1.387 -1.677,2.563 -3.72,2.436 2.638,-0.66 1.688,-3.459 5.533,-3.92l-2.573 -1.666c0.367,-4.13 -0.537,-7.347 6.901,-7.876 3.754,-0.268 3.544,-1.066 6.616,-1.687 1.082,-3.555 0.523,-0.781 -0.777,-1.873 -2.967,0.742 -1.95,1.251 -4.369,1.154l-3.216 -0.148c2.465,-6.331 0.541,-4.122 -0.053,-9.573l-1.842 -0.095c0.19,-3.319 -4.277,-1.086 -3.741,-0.407 -0.619,-1.797 -0.013,-0.907 -1.604,-1.939l-0.504 3.619z"/>
   <path class="fil2" d="M80.098 73.7l-0.188 2.937c2.072,0.978 0.895,-0.053 1.787,1.917 -2.893,-1.353 -0.744,-1.302 -4.512,-2.054 -1.24,2.336 -4.72,-0.373 -5.242,-1.41 -0.144,-0.287 -1.358,-6.562 -1.486,-7.321 4.39,0.284 10.976,0.374 9.641,5.931zm3.58 -10.876c-0.038,-0.091 -0.185,0.321 -0.245,0.495 0.656,1.186 -0.313,0.114 0.916,1.503l-2.075 -0.969c-3.338,-1.175 -4.321,0.128 -3.377,-7.414 3.635,0.482 6.153,1.596 5.457,4.779l-0.433 1.095c-0.049,0.135 -0.203,0.603 -0.243,0.511zm9.77 -8.732c0.444,1.85 -0.163,0.016 0.468,1.422 0.045,0.1 0.524,0.744 0.644,0.912 2.733,4.286 -1.321,0.212 2.414,6.569 -2.261,-0.56 -1.794,-0.9 -3.849,0.071 -4.117,1.946 -4.028,0.161 -4.992,-1.687 -1.831,-1.639 -2.836,-4.787 -3.142,-7.525l8.457 0.238zm-21.53 -3.435c2.779,0.922 0.649,0.804 3.23,0.026 2.197,-1.816 0.263,-1.243 3.654,-2.099 0.358,2.541 0.572,1.929 0.419,4.812l-5.54 3.741c-0.604,1.056 0.165,0.62 -1.394,1.01l-0.54 1.243c2.296,0.81 4.264,2.969 5.237,5.584 -4.861,-1.499 -2.215,-2.807 -5.77,-3.212 -2.003,0.88 -5.212,0.955 -7.328,2.043 2.845,3.225 -1.184,1.664 3.952,4.046 -1.934,0.954 -1.002,0.067 -3.044,0.413 -2.046,0.346 -1.017,0.337 -3.237,1.285l-0.006 0.461c-1.162,0.821 1.277,0.841 -2.584,1.104 -3.032,0.207 -6.615,-4.569 -7.709,-7.148l2.707 -1.907c0.105,-0.074 0.349,-0.102 0.424,-0.337 0.076,-0.24 0.293,-0.225 0.482,-0.37l-1.211 -2.768c-0.068,-0.07 -5.648,-0.615 -6.235,-4.357 -0.724,-4.619 0.544,-2.615 1.033,-3.209l0.792 -2.911c3.155,1.531 3.161,1.66 5.617,3.405 2.577,1.618 2.001,1.832 1.296,4.583 -0.585,2.281 -0.753,1.675 -0.798,4.633 1.047,1.01 -1.633,0.695 2.3,0.924l4.681 -0.236c-0.786,-5.675 -3.26,-6.68 -3.043,-14.076 4.209,0.175 10.733,0.554 12.615,3.317zm-15.813 -6.534l-2.637 -0.55 -0.741 -0.976c-0.062,-3.19 -0.018,-1.17 0.833,-1.902 0.707,-1.692 1.538,-2.601 4.108,-3.418 1.553,2.37 2.822,6.183 -1.563,6.846zm-12.113 22.15c0.735,0.066 5.566,1.583 6.839,1.953 2.874,0.836 3.538,2.075 3.698,5.556 -0.986,2.292 0.068,1.001 -1.771,1.696l2.047 2.489c0.916,1.516 0.433,0.393 0.87,2.22 -1.784,-0.798 -0.317,0.077 -1.839,-1.385 -0.484,-0.464 -0.654,-0.694 -1.397,-1.404l-1.533 0.602c-7.554,-0.212 -6.852,-5.104 -6.641,-12.088 -2.034,1.707 -0.738,-0.232 -1.371,2.955 -0.022,0.106 -0.038,3.222 -0.02,3.465 0.136,1.828 0.723,4.583 1.159,6.068 1.454,1.296 1.791,2.508 4.277,2.864 -0.18,0.119 -0.423,0.221 -0.566,0.314 -2.788,1.824 -0.226,-0.001 -2.384,2.522 -2.411,2.819 -4.265,-0.47 -7.119,-1.39l0 3.281 9.263 3.6c0.904,0.533 0.785,0.433 1.389,0.925 -0.176,1.998 0.95,3.285 -1.737,2.035 4.42,0.212 7.766,0.407 9.25,-1.264 0.876,-0.986 0.163,-0.036 0.887,-1.138 0.244,0.243 0.964,1.472 0.67,2.419l-0.295 0.26c1.774,-0.08 3.486,0.033 5.249,0.089 0.294,0.01 2.21,0.019 2.399,-0.039 2.272,-0.684 0.649,1.507 1.418,-1.211 -2.743,0.502 -4.527,-0.312 -7.138,-0.465 0.865,-3.343 2.864,-7.415 7.049,-5.575l1.22 0c1.42,0.365 0.327,0.127 0.895,-1.317 -5.756,0.355 -5.636,-0.431 -8.209,-1.073l-0.476 1.379 -0.144 1.545 -3.356 0.083c0.033,4.461 0.05,0.797 -0.719,2.322 -3.57,3.319 -5.575,0.485 -7.771,-0.74l-2.148 -1.195c2.773,-3.479 5.312,-5.927 10.136,-3.902 -0.051,-3.265 0.212,-0.702 -0.995,-1.827 -0.012,0.041 0.104,0.024 0.111,0.064 0.155,0.902 1.249,-2.149 2.566,-3.271 1.37,2.396 1.266,4.365 4.468,4.711 -1.471,-2.943 -3.889,-5.453 -3.746,-9.68 2.686,1.445 4.114,-0.038 7.121,0.632 6.829,2.593 0.249,6.344 3.788,6.344 1.024,-0.934 0.242,-0.255 1.607,-0.648 0.155,-0.044 0.624,-0.14 0.786,-0.178l0.785 -0.185c0.539,-0.084 1.078,-1.135 2.947,0.99 2.458,-0.143 -1.153,-2.32 -0.739,2.929 0.129,-0.119 0.329,-0.27 0.406,-0.334l1.269 -1.087c1.009,0.597 1.775,1.167 2.555,1.759 0.089,-0.187 0.203,-0.674 0.264,-0.565l1.309 -1.96c0.532,1.718 0.211,1.897 0.51,3.123 0.901,3.699 0.155,2.076 1.669,2.568 -0.495,-4.174 -0.154,-4.933 2.112,-8.408 1.545,0.899 2.079,1.815 3.613,2.891 -0.253,-4.331 -1.395,-0.896 0.916,-4.537 -5.874,0.17 -5.562,-2.761 -5.91,-8.312 4.712,0.05 5.415,0.258 8.534,2.396l-0.031 2.883 1.751 -1.054c2.295,-1.196 3.022,-0.882 4.239,-2.499 -2.885,0.427 -3.818,0.281 -4.12,-2.684 1.779,-1.3 1.873,-1.315 4.642,-1.181l0.703 -3.505c-2.711,-1.355 -1.263,0.57 -3.4,-7.848l-2.355 -0.164c-1.071,-1.575 -2.099,-1.927 -4.045,-2.037 -1.762,-0.1 -2.936,0.294 -5.305,0.243 -0.684,1.836 -0.783,2.397 -1.66,3.946 -3.243,-1.004 -2.915,-0.449 -2.171,-3.441 1.462,-5.875 -0.96,0.191 0,-4.382 2.105,-0.035 2.581,0.172 4.219,0.648 -0.845,-1.44 -0.703,-1.641 -2.735,-1.996l-3.658 -0.309c-2.332,-3.25 -1.276,-4.588 -2.27,-8.697 -1.333,0.644 -1.139,-0.133 -1.751,0.761 0.596,2.187 1.219,4.084 0.72,7.006 0.729,0.351 1.181,0.403 1.403,1.346l-1.829 1.692 -12.755 -3.365c-3.359,-0.599 -1.126,-0.954 -0.834,-4.146 0.205,-2.255 -1.2,-6.852 -4.598,-5.483l-1.356 0.645c-2.194,1.4 -1.267,1.388 -2.477,3.379l-0.856 1.184c-1.286,1.928 -1.163,-1.676 -0.881,1.957 0.202,2.604 0.166,0.455 1.094,1.343l1.029 1.048c-5.298,2.699 -6.088,-1.324 -7.217,10.762 1.123,0.959 0.377,0.137 1.478,0.953l4.205 3.746c-1.243,2.251 -0.624,4.075 -1.301,5.218 -4.338,-1.474 0.129,-1.644 -5.18,-2.016 -1.278,1.255 -0.523,0.279 -0.725,2.176z"/>
   <path class="fil3" d="M103.136 154.003c0.134,1.399 -0.069,0.559 0.437,1.905 0.061,0.161 0.316,0.642 0.368,0.543 0.054,-0.101 0.295,0.341 0.438,0.515 0.238,-2.425 -0.304,-1.025 0.562,-1.99 1.945,1.506 5.837,4.098 7.591,5.136 -3.897,0.042 -6.158,-1.03 -8.199,-3.064 -1.304,1.417 -3.3,2.863 -2.757,4.993l-0.901 -0.491c-1.568,-1.211 -0.533,-1.155 -3.501,-3.569l-1.265 1.36c1.497,0.175 0.372,-0.758 1.021,0.465 -0.896,2.471 -4.956,5.308 -7.46,6.192 -5.042,1.779 -6.677,0.422 -11.908,0.535 1.734,1.798 1.611,1.256 6.653,1.316l5.059 -0.803c-0.663,1.658 -1.412,1.86 -2.926,2.345l-2.23 1.446c0.405,-0.468 0.182,0.691 2.545,-0.487l12.239 -10.244c-0.454,3.417 -1.678,6.529 -3.93,7.862 -6.087,3.605 -2.832,0.502 -6.832,6.084l1.556 0.315c2.376,0.626 1.42,0.856 2.22,2.898l-0.137 -6.402 3.049 -0.409 -0.304 4.885c0.039,2.154 0.424,3.863 0.479,6.119l-0.715 2.229c0.321,-5.053 0.051,-0.635 1.433,-2.509l0.563 -6.567c9.1,3.41 3.056,11.084 2.72,12.243 -0.388,1.337 -0.688,0.828 0.073,2.204 1.528,2.761 1.116,0.299 1.212,0.159 -0.455,-7.61 4.924,-4.175 0.402,-14.427l-3.69 -2.797 4.247 -9.192c1.423,3.446 1.987,2.218 2.988,4.334 4.849,0.924 0.478,4.864 8.1,8.066l1.83 0.973 -0.157 -0.233c2.458,0.803 3.363,2.373 2.347,5.692 -0.992,3.241 -2.936,2.314 -5.587,1.591 -1.133,0.771 -0.341,-0.483 -0.438,1.345 1.961,0.296 3.53,0.541 5.825,0.254 1.716,-3.062 3.231,-6.86 -1.321,-10.265 -1.86,-1.392 -3.425,-1.618 -4.696,-3.104 -1.326,-1.549 -1.214,-2.791 -2.316,-4.293 1.731,4.008 4.196,4.12 9.439,4.204 5.8,0.092 5.602,2.487 7.138,5.133l0.615 0.841c1.784,-6.343 -4.705,-7.867 -9.74,-7.943 -4.474,-0.069 -7.796,-3.959 -10.112,-7.724 -0.693,-0.855 -1.505,-1.408 -1.933,-2.998l3.332 2.487c2.138,0.941 3.906,0.79 5.412,1.967 1.749,1.367 1.248,2.976 2.679,4.874 1.136,-1.428 0.332,-3.792 -0.697,-5.864 3.821,0.604 7.217,2.352 10.42,2.265 -2.519,-2.435 -5.843,-2.682 -7.811,-4.597 1.487,-2.267 4.301,-3.896 7.904,-2.121 2.875,1.415 2.585,4.586 7.309,4.287 -0.157,-0.134 -0.358,-0.308 -0.466,-0.406 -0.105,-0.095 -0.329,-0.295 -0.442,-0.399 -0.106,-0.096 -0.312,-0.291 -0.406,-0.377l-0.704 -0.707c-2.399,-0.485 -1.622,-0.607 -3.357,-2.313 -1.186,-1.165 -2.015,-1.718 -3.69,-2.082 -4.158,-0.902 -5.302,1.679 -8.707,2.395 -1.074,-0.575 -4.358,-2.797 -4.782,-4.818l-1.791 0.712c-3.924,0.9 3.331,-0.194 -1.277,0.195 -0.285,0.025 -0.431,-0.001 -0.697,0.007l-1.525 -0.096c-0.189,-0.274 -0.531,-0.074 -0.798,-0.08z"/>
   <path class="fil2" d="M106.562 161.161c-2.232,-0.241 -1.04,-0.333 -1.399,0.511 2.316,3.765 5.638,7.655 10.112,7.724 5.035,0.076 11.524,1.6 9.74,7.943l-0.615 -0.841c-1.536,-2.646 -1.338,-5.041 -7.138,-5.133 -5.243,-0.084 -7.708,-0.196 -9.439,-4.204 1.102,1.502 0.99,2.744 2.316,4.293 1.271,1.486 2.836,1.712 4.696,3.104 4.552,3.405 3.037,7.203 1.321,10.265 1.412,-0.541 3.72,-1.39 3.968,-3.763 0.169,-1.602 0.226,-0.24 -0.13,-1.319l-2.443 -3.123c0.15,-0.081 0.384,-0.15 0.478,-0.179 0.083,-0.026 0.341,-0.122 0.436,-0.15 1.434,-0.431 0.441,1.716 1.037,-0.246 0.029,-0.095 0.181,-0.009 0.261,-0.048l-2.699 -1.345c6.924,-0.674 5.65,2.941 6.656,5.789 1.692,-0.742 1.497,-0.009 2.152,-2.24 0.273,-0.929 0.262,-2.429 0.22,-3.455 -0.12,-2.93 -1.169,-4.706 -0.228,-6.075 -3.506,-0.589 -3.723,-1.334 -5.833,-1.532 -0.115,-0.01 -0.303,0.032 -0.428,0.019 -0.144,-0.014 -0.334,0.027 -0.489,0.004l-2.993 -1.246c4.538,-0.749 7.641,0.283 10.833,-0.283 0.012,-0.195 -0.029,-0.453 -0.074,-0.582 -0.378,-1.092 -0.023,-1.225 -1.987,-2.164 1.925,0.008 3.964,0.268 5.606,1.129 2.01,1.051 -0.235,1.221 4.734,1.206l-4.254 0.213c1.388,-1.506 1.46,-1.402 3.548,-2.071 -2.927,0.282 -1.273,1.1 -3.898,-0.03l3.877 -1.766c-1.456,-1.481 0.96,-0.347 -2.339,-1.409 -0.874,-0.281 -1.642,-0.113 -2.407,-0.074l0.704 0.707c0.094,0.086 0.3,0.281 0.406,0.377 0.113,0.104 0.337,0.304 0.442,0.399 0.108,0.098 0.309,0.272 0.466,0.406 -4.724,0.299 -4.434,-2.872 -7.309,-4.287 -3.603,-1.775 -6.417,-0.146 -7.904,2.121 1.968,1.915 5.292,2.162 7.811,4.597 -3.203,0.087 -6.599,-1.661 -10.42,-2.265 1.029,2.072 1.833,4.436 0.697,5.864 -1.431,-1.898 -0.93,-3.507 -2.679,-4.874 -1.506,-1.177 -3.274,-1.026 -5.412,-1.967z"/>
   <path class="fil4" d="M57.665 61.652l-5.435 2.031c0.64,1.382 2.198,3.421 3.096,4.521 2.045,2.504 2.945,2.021 6.225,1.806l0.006 -0.461c1.236,-2.631 0.95,-0.661 0.651,-3.506 0.944,-0.693 -0.151,-0.92 1.372,-0.213l0.306 -2.025c2.116,-1.088 5.325,-1.163 7.328,-2.043 0.591,-1.442 -0.876,-1.203 0.609,-1.209 -3.745,-0.51 -6.438,-2.897 -7.332,-6.656l1.184 1.372c1.893,2.095 2.445,3.133 6.612,2.878 1.559,-0.39 0.79,0.046 1.394,-1.01 0.095,-3.359 -0.558,-4.218 -1.763,-6.48 -1.882,-2.763 -8.406,-3.142 -12.615,-3.317 -0.217,7.396 2.257,8.401 3.043,14.076l-4.681 0.236z"/>
   <path class="fil2" d="M86.663 170.35l-2.053 2.182c-1.096,0.84 -0.91,0.665 -1.968,1.198l-4.081 1.921c-0.075,-0.132 -0.289,0.193 -0.43,0.297 1.416,-0.066 2.819,-0.275 3.935,-0.369 3.473,-0.293 1.87,1.08 4.617,1.284 0.097,0.008 1.297,-0.076 1.486,-0.082l1.05 0.003c0.092,0.192 0.123,0.45 0.16,0.62l0.261 1.214c0.657,3.056 -0.246,1.95 1.349,2.931 -3.029,3.3 -2.192,-1.318 -2.436,4.3l3.935 0.384c1.438,0.527 0.678,0.893 4.492,2.478 -0.193,3.9 -0.412,2.185 -0.587,2.299 5.916,0.728 3.804,1.058 5.363,-0.121 -0.707,-2.779 0.03,-0.812 -1.467,-1.672 -0.096,0.14 0.316,2.602 -1.212,-0.159 -0.761,-1.376 -0.461,-0.867 -0.073,-2.204 0.336,-1.159 6.38,-8.833 -2.72,-12.243l-0.563 6.567 -0.261 4.787c-1.423,0.016 -0.839,-0.165 -1.528,-1.444 -1.886,0.761 -2.146,1.21 -3.623,0.54 2.098,-1.199 3.159,-2.351 4.694,-3.603 -0.055,-2.256 -0.44,-3.965 -0.479,-6.119l0.304 -4.885 -3.049 0.409 0.137 6.402c-0.8,-2.042 0.156,-2.272 -2.22,-2.898l-1.556 -0.315c4,-5.582 0.745,-2.479 6.832,-6.084 2.252,-1.333 3.476,-4.445 3.93,-7.862l-12.239 10.244z"/>
   <path class="fil2" d="M83.648 36.382c-1.484,-3.505 -1.349,-3.763 -0.507,-7.914 0.749,-0.038 9.284,1.754 3.725,7.075l-3.292 0.515c0.106,0.185 0.315,0.204 0.4,0.5 0.082,0.288 0.292,0.365 0.407,0.47l1.277 1.031c0.44,0.285 1.832,0.928 2.446,1.25l0.631 -1.252c0.489,-1.221 0.23,-0.457 0.6,-1.673 1.839,-6.038 2.577,-1.149 1.375,-6.36 6.38,0.385 1.708,3.739 5.16,4.351 2.124,0.377 1.817,-0.285 2.536,-0.845 0.154,-5.048 0.254,-0.83 -1.316,-2.586l0.199 2.67c-0.878,-0.468 -2.213,0.247 -2.281,-5.028 -3.777,-0.234 -4.468,0.686 -7.081,-1.739 -3.845,-5.077 0.343,-12.602 1.211,-16.882 2.573,1.3 1.911,2.036 4.096,3.557 0.341,0.236 10.707,5.024 4.139,12.097 -0.113,0.16 -0.28,0.339 -0.344,0.479l-0.576 3.959c0.066,1.863 -0.218,0.419 0.968,0.992l0.281 -2.225c2.647,-0.423 0.285,-1.579 3.464,2.633 0.795,1.054 0.138,-0.922 0.846,1.31 2.034,-3.19 -0.11,-1.096 1.531,-2.132l-2.254 -0.596c-3.072,-6.96 1.558,-5.838 4.136,-10.369 0.941,0.611 0.99,0.135 1.781,0.53l-0.163 -1.537c-5.717,-0.122 -5.267,1.505 -7.291,-2.542 -0.562,-1.124 0.191,-0.447 -1.309,-1.953l-9.375 -5.12c-1.436,0.68 -1.275,0.999 -2.157,-0.715 -0.667,4.131 -1.891,0.137 -1.771,7.683 0.059,3.723 0.034,5.962 -0.388,9.707l-1.995 0.692c-2.542,2.127 -1.494,6.355 -1.734,10.35 3.952,-1.09 -0.569,-0.527 2.625,-0.383z"/>
   <path class="fil2" d="M133.622 97.988c-1.572,-1.995 -0.075,0.075 -0.981,-2.194 -0.052,-0.13 -0.125,-0.335 -0.172,-0.452l3.179 -1.188c1.204,1.181 1.658,1.997 1.881,4.257l-3.907 -0.423zm-2.782 -6.438c-3.147,-1.501 -1.382,-0.836 -4.69,-0.201 -1.909,0.365 -4.411,0.324 -6.439,0.61l2.71 0.232c3.689,0.916 2.586,-0.387 4.325,1.969 0.986,0.271 1.103,0.069 2.127,0.863 1.9,1.474 0.854,0.724 1.52,2.275 -1.726,0.716 -2.613,1.871 -5.202,1.764 -2.129,-1.193 -1.499,-1.664 -4.439,-3.015 -1.789,-0.822 -3.227,-0.961 -4.575,-1.648l-4.618 -1.9 -2.63 0.218c3.135,2.196 7.644,2.822 9.919,4.619 2.011,1.589 4.431,6.749 5.261,9.377l1.826 0.55c0.867,-2.661 0.199,-0.159 -0.203,-1.451l-0.628 -1.789c-1.224,-1.861 -0.778,0.67 -2.392,-2.79 1.64,-0.293 3.079,-0.555 4.841,-0.826 4.784,-0.737 3.44,0.042 3.638,0.746l0.947 -2.036c1.952,0.074 3.96,0.475 5.483,0.046l5.821 -1.59c0.155,-0.008 0.571,-0.022 0.715,-0.043 0.003,-0.001 1.85,0.255 2.63,-1.594 2.052,-4.868 0.461,-1.648 -0.29,-2.826 -0.052,0.285 0.144,1.783 -0.76,2.043 -1.715,0.494 -9.291,-0.906 -4.336,-4.618 -2.399,-0.367 -1.596,0.403 -2.608,-1.198 3.113,0.801 1.728,0.027 5.357,-0.259 0.499,0.544 0.76,0.643 1.468,1.049 -0.416,-2.899 -2.332,-1.764 -4.428,-1.985 -3.828,-0.403 -1.395,-1.337 -4.093,-2.335 0.049,2.07 0.175,0.96 -0.691,2.549 -0.007,0.013 -1.242,1.903 -1.266,1.935 -1.407,1.856 -1.979,2.1 -4.3,1.259z"/>
   <path class="fil5" d="M106.536 149.131l-0.475 1.304 0.731 0.609c0.718,-1.522 0.191,-1.443 2.965,-2.247 -0.201,-2.057 -0.276,-1.036 -0.576,-3.439 9.38,-2.989 3.882,-10.516 3.698,-15.341 -2.068,-0.237 -2.026,-1.129 -2.595,-4.359 2.702,1.862 0.841,1.331 3.042,2.619l-0.279 -4.14 1.682 0.266c-1.794,-5.595 -0.225,-12.451 -2.16,-15.798l-2.361 -0.03c0.103,6.718 2.831,7.41 1.53,15.51 -0.828,-12.178 -3.316,-16.31 -3.401,-16.961 -0.035,-0.265 -0.127,-0.344 -0.242,-0.482 -2.675,7.653 3.735,12.14 0.731,18.965 -1.019,-2.31 0.572,-3.983 -0.631,-7.972 -3.81,6.89 2.63,15.092 3.135,16.307 3.321,7.994 -0.768,11.152 -8.669,10.873 0.169,0.12 0.397,0.222 0.552,0.283l1.708 0.615c0.49,0.11 1.795,0.101 2.585,0.181l-0.97 3.237z"/>
   <path class="fil6" d="M136.829 66.259c2.096,-4.816 5.252,-4.608 10.253,-4.045 -4.164,1.687 -6.719,0.084 -8.455,4.99l1.444 1.84c0.09,0.103 0.243,0.259 0.325,0.354l0.617 0.789c10.617,-0.246 5.042,-0.885 10.449,-5.632 0.201,-0.176 1.099,-0.777 1.493,-1.049l2.087 -1.521 -2.839 -1.193c-7.442,-3.665 -14.909,-6.165 -15.551,4.426 -3.584,0.35 -3.22,0.253 -5.495,1.629l5.672 -0.588z"/>
   <path class="fil7" d="M87.927 26.847l0.538 -1.77c-0.35,2.193 -0.061,0.8 1.88,1.561l1.204 -1.38c-1.447,-3.505 -1.673,-4.31 -0.562,-7.706 0.901,4.98 1.236,5.146 3.998,8.11l2.388 -0.043c6.568,-7.073 -3.798,-11.861 -4.139,-12.097 -2.185,-1.521 -1.523,-2.257 -4.096,-3.557 -0.868,4.28 -5.056,11.805 -1.211,16.882z"/>
   <path class="fil4" d="M136.572 49.947c0.975,-1.485 1.004,-1.213 1.635,-2.528 0.355,-0.739 0.218,-0.772 0.514,-1.326 1.464,-2.739 0.225,-0.677 1.331,-1.765l1.929 -8.274c-3.072,0.621 -2.862,1.419 -6.616,1.687 -7.438,0.529 -6.534,3.746 -6.901,7.876l2.573 1.666c-3.845,0.461 -2.895,3.26 -5.533,3.92 2.043,0.127 2.72,-1.049 3.72,-2.436 3.149,0.863 3.652,1.916 7.348,1.18z"/>
   <path class="fil2" d="M90.017 146.514c-0.697,-0.524 -0.167,-0.239 -1.342,-0.708 -1.862,-0.743 -6,-1.078 -10.964,-2.926 -4.183,-1.556 -7.456,-3.307 -7.093,-7.682 3.466,-5.471 15.625,-3.991 22.909,-3.718l-2.569 -3.743c-0.601,-0.759 -0.566,-0.744 -1.074,-1.247l-0.52 2.528c-0.048,0.023 -0.252,0.117 -0.312,0.144l-1.812 0.682c-3.282,0.613 -2.592,-0.974 -9.135,0.026 -4.142,0.632 -3.721,0.478 -4.895,-0.216 -1.508,3.502 -0.245,1.492 -3.486,4.249 -0.302,2.01 -0.539,5.522 0.21,7.439 1.052,2.691 1.403,0.696 1.692,2.667l-0.359 0.546c2.559,-0.122 5.45,-0.737 7.791,0.241 2.925,1.222 7.664,2.319 10.959,1.718z"/>
   <path class="fil8" d="M95.06 146.815c0.824,1.551 1.393,2.486 1.546,4.703l-18.366 1.487 17.554 0.761c0.213,1.916 3.193,0.286 6.965,0.238 0.066,-0.001 0.252,0.009 0.377,-0.001 0.267,0.006 0.609,-0.194 0.798,0.08l1.525 0.096c0.266,-0.008 0.412,0.018 0.697,-0.007 4.608,-0.389 -2.647,0.705 1.277,-0.195l1.791 -0.712 0.594 0.296c-0.902,-0.802 -1.718,-1.238 -2.611,-1.814 -1.576,-1.017 -1.781,1.011 -1.146,-1.312l0.475 -1.304c0.858,-0.955 0.603,-0.508 0.88,-2.276 -1.159,-0.825 -0.769,-1.22 -3.771,-0.593 0.214,0.394 1.948,1.479 -0.16,2.982 -1.308,0.934 -3.5,0.566 -5.372,0.489 -0.467,-1.155 -0.46,-2.147 -0.949,-3.186l-2.104 0.268z"/>
   <path class="fil2" d="M107.206 20.2c0.119,3.878 1.945,4.3 1.208,9.836 -1.593,1.585 0.102,0.022 -1.514,0.648l0 1.231 1.974 -0.282c0.373,1.541 -0.111,0.596 0.6,1.817 1.356,2.33 0.354,0.888 1.898,2.02l-0.086 -1.565c-1.206,-4.006 2.813,-6.049 6.821,-6.493 -0.471,9.155 0.409,2.402 -1.268,8.251 2.937,0.9 1.638,-0.803 3.288,-5.187 0.05,-0.134 0.138,-0.328 0.186,-0.447l0.387 -0.92c0.237,2.26 -0.261,-0.049 1.255,1.041l-0.044 -2.785c-3.023,-2.022 -3.096,-4.36 -0.04,-6.979l0.266 -1.55c-5.76,1.481 -1.769,2.855 -3.994,5.783 -0.663,0.872 -5.885,2.452 -7.374,2.533 -1.791,-2.986 0.462,-5.834 -3.563,-6.952z"/>
   <path class="fil9" d="M89.851 161.104c-9.225,2.128 -3.173,2.639 -12.108,3.835 -0.059,0.078 -0.112,0.231 -0.135,0.259 -0.021,0.026 -0.123,0.199 -0.153,0.228l-2.113 0.816c-1.407,0.419 -2.147,0.817 -3.186,1.337 1.188,2.313 -0.028,1.558 2.538,1.039 0.657,-0.132 1.535,-0.809 1.756,-1.045 -0.439,-0.194 0.233,-1.628 -1.711,0.845 -3.219,4.099 -0.301,2.697 -0.03,3.041 2.587,-4.472 5.745,-2.235 9.506,-3.61 -5.042,-0.06 -4.919,0.482 -6.653,-1.316 5.231,-0.113 6.866,1.244 11.908,-0.535 2.504,-0.884 6.564,-3.721 7.46,-6.192 -0.649,-1.223 0.476,-0.29 -1.021,-0.465 -1.631,0.853 -3.65,2.18 -5.215,3.533 -1.284,-0.446 -1.118,1.71 -0.843,-1.77z"/>
   <path class="fil6" d="M50.906 78l0.7 -1.665c-3.07,-0.727 -3.499,-0.885 -3.85,-4.013 2.646,2.64 3.894,3.514 6.773,1.46 -0.16,-3.481 -0.824,-4.72 -3.698,-5.556 -1.273,-0.37 -6.104,-1.887 -6.839,-1.953l0.273 -0.361c-0.211,6.984 -0.913,11.876 6.641,12.088z"/>
   <path class="fil6" d="M120.856 56.788l-0.572 3.955c2.154,-2.837 4.693,-3.292 7.753,-2.231 -3.188,0.957 -5.968,1.945 -5.929,5.373 4.355,5.05 7.757,-1.752 9.135,-4.589 0.131,-0.133 0.043,-0.633 1.162,-1.158 -1.246,-1.74 1.523,0.226 -1.525,-1.743 -2.863,-1.138 -8.339,-2.81 -10.024,0.393z"/>
   <path class="fil4" d="M147.988 55.287c1.619,-2.053 1.323,-0.605 2.585,-4.011 0.921,-2.483 1.496,-2.91 2.011,-5.016l0.013 0.495 -3.083 -0.193c-5.358,0.436 -8.669,0.151 -9.391,5.104 2.404,1.956 -0.006,-0.99 1.958,1.192 1.429,1.589 -0.207,3.393 5.907,2.429z"/>
   <path class="fil2" d="M140.052 44.328l-0.672 3.29c3.872,-0.48 3.419,-0.456 5.671,-3.079 -0.202,-0.105 -0.511,-0.452 -0.625,-0.273l-2.321 -1.022 2.622 -3.211c0.085,-0.103 0.237,-0.291 0.375,-0.418 4.239,-1.136 3.798,0.31 7.176,0.885l-2.539 3.595c-0.308,1.308 -0.305,1.435 -0.225,2.467l3.083 0.193c-0.104,-4.04 -0.053,-3.173 1.382,-6.101 -1.613,-1.92 -1.253,-0.802 -1.815,-3.188 -5.186,0.204 -3.552,-0.231 -5.381,-0.449l-4.094 0.317c-0.127,-3.177 0.112,-0.292 -0.708,-1.28l-1.929 8.274z"/>
   <path class="fil9" d="M122.503 82.217c-0.463,1.329 0.122,1.093 -0.651,1.878l-9.736 -0.085c-1.232,1.796 0.248,0.004 -1.987,1.085 -2.004,0.969 -1.261,-0.084 -2.288,1.939 5.487,1.267 6.394,-0.157 7.5,0.028 2.719,0.458 0.707,-0.81 2.098,1.509 2.897,-0.34 3.231,-0.793 5.863,-1.646 2.736,-0.888 2.452,-0.241 5.202,-0.344 1.777,-0.657 1.101,-0.141 1.778,-1.546 -4.205,-1.554 -4.112,0.814 -3.416,-2.068 -1.222,0.874 -1.149,1.023 -3.196,0.771 2.251,-1.201 1.425,0.036 1.947,-2.173 -1.4,1.417 -0.558,1.292 -3.114,0.652z"/>
   <path class="fil6" d="M139.532 75.239c-0.57,2.674 -0.223,0.439 0.377,1.233 1.255,-0.593 2.319,-1.272 3.855,-0.996 1.322,0.238 0.939,0.374 1.543,0.794 -2.984,1.458 -2.377,0.403 -5.162,2.59l0.254 2.311c2.779,1.79 4.292,0.425 7.006,0.007 0.427,-2.122 -0.657,-1.258 3.648,-4.261l-2.21 -2.869 -0.542 0.096c-3.532,-1.129 -7.5,-3.539 -8.769,1.095z"/>
   <path class="fil2" d="M94.888 99.876l0.693 3.568 -2.944 2.043c-3.81,-1.27 -4.338,1.435 -6.797,1.664 -2.092,0.196 -0.342,0.008 -0.518,-0.116l-0.132 2.26c0.042,0.01 0.057,-0.081 0.06,-0.058 0.253,1.658 -1.045,-0.865 1.127,0.058 -1.754,8.539 0.055,3.279 -0.63,8.457 0.135,-0.052 0.322,-0.34 0.376,-0.215 0.956,2.184 -0.538,-0.777 2.072,-0.474 -0.877,-4.199 -1.189,-9.706 3.147,-11.003 0.902,1.399 1.043,2.574 1.27,4.52 3.265,-2.183 6.573,-6.717 6.313,-11.994 -1.496,1.274 -2.161,1.494 -4.037,1.29z"/>
   <path class="fil4" d="M88.133 61.379c0.185,0.104 0.442,0.075 0.535,0.343 0.299,0.867 2.165,1.083 3.959,0.851 -0.285,-1.718 -0.358,-0.914 -1.434,-2.632 2.593,-0.061 1.725,0.425 3.616,-1.156l-0.249 -2.359c-0.12,-0.168 -0.599,-0.812 -0.644,-0.912 -0.631,-1.406 -0.024,0.428 -0.468,-1.422l-8.457 -0.238c0.306,2.738 1.311,5.886 3.142,7.525z"/>
   <path class="fil10" d="M114.008 78.88c0.444,2.911 0.31,0.942 -0.669,1.654l-0.197 2.127c-0.478,0.494 -0.586,0.146 -1.123,0.404l0.097 0.945 9.736 0.085c0.773,-0.785 0.188,-0.549 0.651,-1.878l0.903 -2.349c0.774,-1.213 -0.031,-1.012 1.486,-1.497 -0.148,-0.093 -0.36,-0.219 -0.449,-0.271 -0.083,-0.05 -0.337,-0.195 -0.427,-0.249l-1.069 -0.607 -3.21 -0.01 -1.845 1.739c-1.287,-0.439 -2.136,-0.956 -3.032,-1.383 -1.231,0.641 -1.131,-1.057 -0.852,1.29z"/>
   <path class="fil6" d="M77.185 76.5c0.293,-2.773 -0.061,-2.829 -1.661,-5.168 2.584,0.645 4.384,2.46 3.517,4.652 0.558,-3.854 0.389,-1.257 1.057,-2.284 1.335,-5.557 -5.251,-5.647 -9.641,-5.931 0.128,0.759 1.342,7.034 1.486,7.321 0.522,1.037 4.002,3.746 5.242,1.41z"/>
   <path class="fil7" d="M81.751 47.073c0.862,-2.386 0.427,-0.181 0.398,-2.399 -0.02,-1.605 -0.685,-0.586 0.126,-2.257 1.312,1.378 1.033,0.8 1.566,3.378l1.17 -0.419 0.663 -3.392c-2.218,-2.462 -6.198,-4.543 -9.851,-3.917 0.994,4.109 -0.062,5.447 2.27,8.697l3.658 0.309z"/>
   <path class="fil1" d="M92.836 157.58c-0.106,0.188 -0.449,1.023 -0.514,1.173 -0.066,0.149 -0.312,0.878 -0.419,1.057 -0.859,1.45 0.337,0.549 -1.512,1.46l-0.54 -0.166c-0.275,3.48 -0.441,1.324 0.843,1.77 1.565,-1.353 3.584,-2.68 5.215,-3.533l1.265 -1.36c2.968,2.414 1.933,2.358 3.501,3.569l0.901 0.491c-0.543,-2.13 1.453,-3.576 2.757,-4.993l0.046 -0.082c-0.143,-0.174 -0.384,-0.616 -0.438,-0.515 -0.052,0.099 -0.307,-0.382 -0.368,-0.543 -0.506,-1.346 -0.303,-0.506 -0.437,-1.905 -0.125,0.01 -0.311,0 -0.377,0.001 -3.772,0.048 -6.752,1.678 -6.965,-0.238 -0.358,2.186 -1.702,3.006 -2.958,3.814z"/>
   <path class="fil2" d="M87.334 93.106c-0.708,1.173 -0.729,1.628 -1.959,1.997 -2.82,0.846 -2.026,-0.455 -2.082,-0.484 -0.902,-1.908 -0.657,-1.659 -0.528,-4.132 1.087,0.152 1.829,0.109 2.789,0.597 1.997,1.016 0.823,0.209 1.78,2.022zm7.554 6.77c-0.621,-1.398 0.255,-0.028 -0.746,-1.145 -3.194,-3.563 -1.884,-3.18 -3.322,-4.439 -2.616,-2.288 -2.856,-0.062 -3.107,-7.214l-0.473 -0.276c0.195,4.725 -0.384,2.445 -1.442,3.377 -1.209,-4.638 0.442,-1.92 -2.564,-4.405l-0.48 0.34 2.352 2.369c-0.557,0.262 -2.077,1.147 -2.252,1.149 -2.477,0.039 0.445,1.234 -1.46,-0.913l-0.68 -1.08c0.25,1.023 0.875,2.997 0.886,3.645 0.035,2.123 -0.329,0.509 -0.944,3.118 0.783,1.138 1.497,2.024 0.855,3.781l1.11 -1.626c0.971,-0.517 0.284,-0.385 1.597,-0.521 0.749,1.585 -0.177,0.965 0,1.863 3.211,0.208 3.108,0.26 5.471,-1.74 0.768,2.335 4.467,3.642 5.199,3.717z"/>
   <path class="fil6" d="M62.223 82.406l3.078 -0.152c0.828,-1.447 -1.271,-0.605 1.613,-1.335l-4.29 -2.707c2.283,-1.075 0.577,0.818 5.243,0 0.265,-2.967 -0.92,-3.575 -2.269,-4.854 -3.007,-0.67 -4.435,0.813 -7.121,-0.632 -0.143,4.227 2.275,6.737 3.746,9.68z"/>
   <path class="fil4" d="M115.298 43.026c-0.059,0.132 -2.984,4.85 0.399,4.21 3.785,-0.716 -2.327,2.655 0.776,-0.578 0.275,-0.286 0.627,-1.399 0.771,-1.82 1.074,1.425 0.145,3.714 3.133,4.495 0.941,-0.089 0.717,0.847 0.756,-0.38 1.086,-2.026 2.011,-3.272 1.197,-5.701 -0.33,-0.987 -0.648,-1.681 -1.186,-2.615 -1.254,-2.173 -0.506,-1.611 -2.998,-1.869 -1.153,0.987 -2.925,2.754 -2.848,4.258z"/>
   <path class="fil11" d="M140.052 44.328c-1.106,1.088 0.133,-0.974 -1.331,1.765 -0.296,0.554 -0.159,0.587 -0.514,1.326 -0.631,1.315 -0.66,1.043 -1.635,2.528l2.628 -0.607 0.303 3.688c-0.032,0.201 -0.069,0.363 -0.123,0.546 -0.935,3.166 -1.318,-0.304 -1.871,3.021l3.701 -1.029c0.042,0.052 0.064,0.124 0.075,0.223l1.875 0.804c0.939,0.062 1.607,0.192 2.541,-0.038 3.536,-0.867 1.148,-0.084 2.287,-1.268 -6.114,0.964 -4.478,-0.84 -5.907,-2.429 -1.964,-2.182 0.446,0.764 -1.958,-1.192 0.722,-4.953 4.033,-4.668 9.391,-5.104 -0.08,-1.032 -0.083,-1.159 0.225,-2.467l-3.355 0.246c-1.495,-2.195 -1.451,-1.904 -1.282,-4.726 -0.138,0.127 -0.29,0.315 -0.375,0.418l-2.622 3.211 2.321 1.022c0.114,-0.179 0.423,0.168 0.625,0.273 -2.252,2.623 -1.799,2.599 -5.671,3.079l0.672 -3.29z"/>
   <path class="fil12" d="M99.796 59.861c0.384,0.241 1.991,1.045 2.494,1.607 1.643,1.831 0.119,1.841 1.475,3.033l0.289 -2.798c3.49,-2.137 5.367,-3.864 0.372,-8.839 -1.248,-1.243 0.356,0.042 -1.428,-1.24 -0.951,1.355 -1.971,3.505 -3.492,4.74l0.29 3.497z"/>
   <path class="fil13" d="M112.569 108.605c1.935,3.347 0.366,10.203 2.16,15.798 1.17,2.595 -0.166,-0.138 1.13,1.294 0.541,-4.524 -1.521,-6.654 -0.614,-12.765 -0.338,0.783 -0.985,-0.954 0.175,1.855 2.861,6.931 -0.24,5.421 2.674,9.038 1.523,0.686 0.446,0.343 0.774,-0.283 -0.739,-3.541 0.445,-4.582 -1.013,-8.239 -0.546,-1.37 -3.106,-5.457 -2.301,-6.457 -1.175,-2.031 -0.688,-1.619 -2.195,-2.634 -0.696,1.737 0.56,-1.497 -0.133,0.907 -0.62,2.148 0.525,0.053 -0.657,1.486z"/>
   <path class="fil2" d="M119.09 108.534l1.603 3.819 4.056 5.235c1.535,0.889 0.337,0.378 2.209,0.527 1.583,-2.535 -0.131,-0.051 1.574,-1.235 -1.031,-2.359 -2.3,-3.217 -2.87,-5.107 -1.289,-4.27 -0.036,-1.362 -2.583,-4.803 -1.238,-1.135 -2.047,-2.081 -3.685,-3.49 -1.322,1.74 1.238,3.191 2.72,8.076 -1.964,-1.065 -0.163,0.757 -2.261,-1.805 -0.646,-0.79 -0.243,-0.524 -0.763,-1.217z"/>
   <path class="fil6" d="M89.395 76.06l0.174 -0.594 -0.197 -2.429 2.697 0.241 -0.05 -3.134c-3.119,-2.138 -3.822,-2.346 -8.534,-2.396 0.348,5.551 0.036,8.482 5.91,8.312z"/>
   <path class="fil7" d="M89.85 44.744c0.169,0.053 0.423,-0.02 0.495,0.192l2.925 1.19c1.366,0.066 2.094,-0.225 3.833,-0.943 1.47,-4.885 0.185,-3.825 0.35,-8.058 -4.464,0.815 -7.105,2.573 -7.603,7.619z"/>
   <path class="fil13" d="M128.463 88.939c-3.476,1.966 -1.963,1.402 -6.699,1.034 -1.277,-0.1 -2.87,-0.023 -3.996,-0.164 -2.341,-0.294 -2.819,0.393 -2.386,-1.276l-2.507 0.813c1.546,1.996 -1.29,-1.498 1.266,0.93l1.629 2.708 -4.211 -0.485 4.618 1.9c2.011,-0.586 1.335,-0.134 3.151,-0.563 3.653,-0.864 1.249,0.418 3.093,-1.645l-2.71 -0.232c2.028,-0.286 4.53,-0.245 6.439,-0.61 3.308,-0.635 1.543,-1.3 4.69,0.201l-0.443 -1.682c0.544,-0.506 0.818,-0.787 1.567,-1.382l1.612 -1.258c-2.444,-0.139 -1.574,-0.516 -4.033,0.955 -0.144,0.085 -0.428,0.516 -0.532,0.368 -0.108,-0.155 -0.355,0.275 -0.548,0.388z"/>
   <path class="fil14" d="M131.724 25.519c-2.242,0.642 -7.594,3.734 -4.533,8.408 0.995,1.519 1.146,0.743 1.198,4.026 1.013,-1.846 -0.153,-1.129 1.372,-2.273 0.918,-0.689 1.275,-0.148 2.875,-1.502 1.203,-4.79 -0.703,-4.818 -0.912,-8.659z"/>
   <path class="fil1" d="M55.856 88.566c-0.351,-2.126 0.241,-2.397 -2.039,-3.007 -0.846,-0.228 -2.719,0.078 -3.679,0.149 1.063,-2.307 4.258,-1.461 6.372,-1.019l-0.437 -1.96c-4.824,-2.025 -7.363,0.423 -10.136,3.902l2.148 1.195c2.196,1.225 4.201,4.059 7.771,0.74z"/>
   <path class="fil6" d="M120.084 68.871l-1.854 1.92c-0.728,1.377 -0.546,2.253 -0.601,3.796 4.037,0.277 2.6,0.316 4.681,-2.025 -0.202,1.393 -0.183,1.224 -0.821,2.121 -1.861,2.614 -0.59,-0.856 -1.752,2.551l3.21 0.01 0.752 -1.465c0.06,-0.137 0.152,-0.324 0.214,-0.476 0.189,-0.456 0.699,-2.202 0.741,-2.479 0.271,-1.793 0.066,-3.866 -0.235,-5.641 -1.719,0.091 -0.57,1.723 -4.335,1.688z"/>
   <path class="fil4" d="M48.458 51.018c-0.214,3.074 -0.172,5.46 2.772,5.81 3.478,0.415 3.985,-1.387 4.379,-1.928l-0.742 -3.388c-2.456,-1.745 -2.462,-1.874 -5.617,-3.405l-0.792 2.911z"/>
   <path class="fil2" d="M70.736 33.03c-0.329,-0.577 -0.635,-1.218 -1.052,-2.031l-0.872 -5.49c2.32,0.403 3.911,0.232 5.5,1.427 0.408,0.323 1.23,-0.042 1.558,2.106 0.207,1.361 -0.129,1.352 -0.585,2.41 0.664,0.454 0.731,0.411 1.708,1.255 0.823,-1.529 -0.833,-1.129 1.443,-1.262 -0.701,-1.018 -0.967,-1.354 -1.435,-3.123l-1.282 -3.194c-0.845,-0.744 -2.381,-1.066 -2.985,-1.157 -0.089,-0.013 -0.27,0.002 -0.359,-0.012 -2.396,-0.349 -1.545,0.076 -2.729,-1.057 1.558,-1.081 1.392,-1.901 3.187,-1.845 -4.574,-0.467 -3.418,1.155 -3.703,2.003 -0.991,2.942 -4.571,3.525 -0.804,9.453l2.41 0.517z"/>
   <path class="fil15" d="M118.02 37.837l0.126 0.931c2.492,0.258 1.744,-0.304 2.998,1.869 0.538,0.934 0.856,1.628 1.186,2.615 0.814,2.429 -0.111,3.675 -1.197,5.701 3.023,-1.942 2.51,-2.18 2.294,-7.376 4.668,2.488 0.792,1.417 2.262,1.02 1.487,-2.743 1.431,0.085 1.742,-4.53 -1.544,-1.163 -1.041,-1.474 -3.711,-2.559 -1.766,1.417 -1.564,1.058 -2.18,3.19l-0.834 -0.892c-0.097,-0.098 -0.322,-0.315 -0.415,-0.406 -0.101,-0.103 -0.305,-0.299 -0.456,-0.449 -0.14,0.114 -1.602,0.771 -1.815,0.886z"/>
   <path class="fil6" d="M157.645 72.95l0.307 -0.302c1.026,-2.893 1.792,-2.679 2.355,-6.237 -4.185,0.175 -8.726,-2.135 -8.018,3.87 2.647,0.444 2.3,-0.326 3.628,0.161l-3.95 0.95c1.984,1.278 2.737,1.964 5.678,1.558z"/>
   <path class="fil2" d="M92.634 122.864c-0.317,1.263 -0.534,1.598 -0.58,3.268 1.55,1.371 2.328,0.825 2.969,3.016l2.779 0.569c1.651,-1.397 0.785,-0.296 1.848,-2.289 -2.301,-2.453 -4.456,-2.696 -3.318,-7.64 -3,0.064 -1.211,-0.569 -3.695,0.642l-0.003 2.434z"/>
   <path class="fil14" d="M101.289 30.039c2.605,0.017 2.041,0.232 3.217,-1.456 -1.126,-0.261 -1.005,0.079 -2.415,-0.651 -0.044,-2.456 -0.684,-2.484 1.141,-3.936 0.412,-0.327 0.464,-0.334 1.42,-0.653 0.361,-0.12 1.44,-0.229 1.805,-0.29 0.727,2.421 0.8,3.639 -0.67,5.977 -2.219,2.21 -0.155,-0.184 -1.294,2.382l2.407 -0.728c1.616,-0.626 -0.079,0.937 1.514,-0.648 0.737,-5.536 -1.089,-5.958 -1.208,-9.836 -0.791,-0.395 -0.84,0.081 -1.781,-0.53 -2.578,4.531 -7.208,3.409 -4.136,10.369z"/>
   <path class="fil11" d="M61.551 70.01c-3.28,0.215 -4.18,0.698 -6.225,-1.806 -0.898,-1.1 -2.456,-3.139 -3.096,-4.521l5.435 -2.031c-3.933,-0.229 -1.253,0.086 -2.3,-0.924 0.045,-2.958 0.213,-2.352 0.798,-4.633 0.705,-2.751 1.281,-2.965 -1.296,-4.583l0.742 3.388c-0.394,0.541 -0.901,2.343 -4.379,1.928 -2.944,-0.35 -2.986,-2.736 -2.772,-5.81 -0.489,0.594 -1.757,-1.41 -1.033,3.209 0.587,3.742 6.167,4.287 6.235,4.357l1.211 2.768c-0.189,0.145 -0.406,0.13 -0.482,0.37 -0.075,0.235 -0.319,0.263 -0.424,0.337l-2.707 1.907c1.094,2.579 4.677,7.355 7.709,7.148 3.861,-0.263 1.422,-0.283 2.584,-1.104z"/>
   <path class="fil2" d="M84.215 167.849c-3.761,1.375 -6.919,-0.862 -9.506,3.61l-0.256 0.15c0.172,0.214 0.766,1.165 0.843,1.246 -3.714,0.974 -3.02,1.193 -5.552,2.258 2.37,0.769 2.43,2.198 1.072,-0.629l2.026 0.505c0.678,-0.831 -0.842,-0.658 3.562,-0.732 1.857,-0.032 2.045,-0.012 3.952,-0.689l-3.32 -0.811 3.166 -1.259c0.732,-0.107 2.282,-0.151 2.955,-0.213 -2.352,-1.103 -2.348,-0.283 -4.085,-2.285l7.276 0.391c1.514,-0.485 2.263,-0.687 2.926,-2.345l-5.059 0.803z"/>
   <path class="fil7" d="M111.286 33.905c2.562,0.22 0.638,-2.779 3.745,-3.379 -0.397,0.491 -0.574,-0.522 -0.953,1.9 -0.326,2.093 -0.294,1.081 0.396,3.055l2.365 0.182c1.677,-5.849 0.797,0.904 1.268,-8.251 -4.008,0.444 -8.027,2.487 -6.821,6.493z"/>
   <path class="fil13" d="M116.26 110.772c0.911,3.188 1.558,3.38 3.402,5.755 1.653,2.129 2.359,3.937 1.951,7.015 0.973,0.939 -0.416,0.425 1.368,0.338 0.533,-2.946 0.624,-5.174 -0.82,-7.258 1.514,1.247 0.508,0.948 2.588,0.966l-4.056 -5.235c-1.828,0.287 -2.423,-1.594 -3.067,-2.778 -0.246,2.498 0.231,0.148 -1.366,1.197z"/>
   <path class="fil1" d="M97.391 79.906c1.454,0.447 2.144,0.672 4.117,0.847 -0.866,-1.461 -1.204,-0.899 -2.09,-3.499l1.885 1.368c1.145,0.676 -0.053,0.253 1.647,0.601 1.084,-0.761 0.326,1.401 0.987,-1.242 0.577,-2.3 -0.552,-2.57 -2.083,-3.9l-0.773 -0.711c-2.511,-0.271 -0.586,-0.445 -3.142,-0.947l-0.548 7.483z"/>
   <path class="fil1" d="M128.504 86.581l-0.041 2.358c0.193,-0.113 0.44,-0.543 0.548,-0.388 0.104,0.148 0.388,-0.283 0.532,-0.368 2.459,-1.471 1.589,-1.094 4.033,-0.955l-1.612 1.258c-0.749,0.595 -1.023,0.876 -1.567,1.382l0.443 1.682c2.321,0.841 2.893,0.597 4.3,-1.259 0.024,-0.032 1.259,-1.922 1.266,-1.935 0.866,-1.589 0.74,-0.479 0.691,-2.549l-6.815 -0.772c-0.677,1.405 -0.001,0.889 -1.778,1.546z"/>
   <path class="fil14" d="M83.648 36.382l-0.074 -0.324 3.292 -0.515c5.559,-5.321 -2.976,-7.113 -3.725,-7.075 -0.842,4.151 -0.977,4.409 0.507,7.914z"/>
   <path class="fil12" d="M84.349 64.822c-1.229,-1.389 -0.26,-0.317 -0.916,-1.503 0.06,-0.174 0.207,-0.586 0.245,-0.495 0.04,0.092 0.194,-0.376 0.243,-0.511l0.433 -1.095c0.696,-3.183 -1.822,-4.297 -5.457,-4.779 -0.944,7.542 0.039,6.239 3.377,7.414l2.075 0.969z"/>
   <path class="fil1" d="M82.754 86.114l0.48 -0.34 1.98 -0.104c1.017,-1.802 0.239,-1.786 1.572,-3.769 0.066,0.467 0.15,1.958 0.178,2.152 0.369,2.524 -1.007,-0.58 0.492,1.662 2.5,-1.521 2.056,-1.156 0.771,-4.215l0.252 -0.903c-1.534,-1.076 -2.068,-1.992 -3.613,-2.891 -2.266,3.475 -2.607,4.234 -2.112,8.408z"/>
   <path class="fil13" d="M72.842 174.989l5.289 0.959c0.141,-0.104 0.355,-0.429 0.43,-0.297l4.081 -1.921c1.058,-0.533 0.872,-0.358 1.968,-1.198l2.053 -2.182c-2.363,1.178 -2.14,0.019 -2.545,0.487l2.23 -1.446 -7.276 -0.391c1.737,2.002 1.733,1.182 4.085,2.285 -0.673,0.062 -2.223,0.106 -2.955,0.213l-3.166 1.259 3.32 0.811c-1.907,0.677 -2.095,0.657 -3.952,0.689 -4.404,0.074 -2.884,-0.099 -3.562,0.732z"/>
   <path class="fil3" d="M146.497 93.11l-0.879 -2.983c-0.708,-0.406 -0.969,-0.505 -1.468,-1.049 -3.629,0.286 -2.244,1.06 -5.357,0.259 1.012,1.601 0.209,0.831 2.608,1.198 -4.955,3.712 2.621,5.112 4.336,4.618 0.904,-0.26 0.708,-1.758 0.76,-2.043z"/>
   <path class="fil13" d="M119.09 108.534c0.52,0.693 0.117,0.427 0.763,1.217 2.098,2.562 0.297,0.74 2.261,1.805 -1.482,-4.885 -4.042,-6.336 -2.72,-8.076l-0.249 -1.954c-3.66,-1.061 -1.85,-2.755 -5.571,-2.913 0.424,1.055 1.767,2.362 2.583,3.356l-0.681 0.994c-0.341,1.736 -0.75,-0.086 0.56,2.199 0.243,0.425 0.729,1.125 1.092,1.603 1.542,2.032 -0.145,0.643 1.962,1.769z"/>
   <path class="fil8" d="M66.734 91.667c0.385,-1.075 0.597,-1.63 0.521,-3.093 -2.727,-0.488 -2.037,-0.214 -4.533,0.242 1.993,-2.966 2.208,-1.081 3.923,-3.189 -4.185,-1.84 -6.184,2.232 -7.049,5.575 2.611,0.153 4.395,0.967 7.138,0.465z"/>
   <path class="fil14" d="M66.618 43.094c2.737,0.795 0.095,0.773 2.668,0.071 -1.334,-1.143 -1.957,-2.5 -2.555,-3.81l1.187 1.942 3.246 0.652c0.453,-5.378 -2.377,-4.647 -6.405,-5.8 -0.09,3.505 0.123,5.088 1.859,6.945z"/>
   <path class="fil10" d="M117.439 88.571l-2.057 -0.038c-0.433,1.669 0.045,0.982 2.386,1.276 1.126,0.141 2.719,0.064 3.996,0.164 4.736,0.368 3.223,0.932 6.699,-1.034l0.041 -2.358c-2.75,0.103 -2.466,-0.544 -5.202,0.344 -2.632,0.853 -2.966,1.306 -5.863,1.646z"/>
   <path class="fil2" d="M118.094 123.825l0.718 1.927c0.226,-0.057 2.224,-0.395 2.275,-0.412 2.508,-0.819 1.221,0.063 1.894,-1.46 -1.784,0.087 -0.395,0.601 -1.368,-0.338 0.408,-3.078 -0.298,-4.886 -1.951,-7.015 -1.844,-2.375 -2.491,-2.567 -3.402,-5.755l-0.706 -1.926c-0.805,1 1.755,5.087 2.301,6.457 1.458,3.657 0.274,4.698 1.013,8.239 -0.328,0.626 0.749,0.969 -0.774,0.283z"/>
   <path class="fil11" d="M113.347 73.412l2.718 -0.53 -0.856 3.753c-2.341,0.488 -2.519,0.121 -3.59,-1.079l1.089 3.161 1.3 0.163c-0.279,-2.347 -0.379,-0.649 0.852,-1.29 0.896,0.427 1.745,0.944 3.032,1.383l1.845 -1.739c1.162,-3.407 -0.109,0.063 1.752,-2.551 0.638,-0.897 0.619,-0.728 0.821,-2.121 -2.081,2.341 -0.644,2.302 -4.681,2.025 0.055,-1.543 -0.127,-2.419 0.601,-3.796l1.854 -1.92c-2.521,1.259 -1.659,0.926 -2.9,3.343l-3.837 1.198z"/>
   <path class="fil2" d="M66.618 44.276l0 -1.182c-1.736,-1.857 -1.949,-3.44 -1.859,-6.945 4.028,1.153 6.858,0.422 6.405,5.8 0.008,-0.002 2.47,0.95 1.243,-3.226 -0.714,-2.429 -5.382,-3.854 -6.337,-3.877 -3.129,-0.074 -1.134,-0.025 -2.336,0.627l-0.383 7.123c0.157,0.08 0.37,0.04 0.44,0.239l1.832 0.953c0.142,0.071 0.375,0.185 0.493,0.244 0.119,0.059 0.334,0.162 0.502,0.244z"/>
   <path class="fil7" d="M125.875 26.792l0.504 -3.619 -1.386 -3.245c-1.493,-0.635 -1.265,0.747 -1.273,-0.647 -2.508,3.113 -3.991,2.698 -2.582,7.167 3.043,-0.682 2.783,-1.235 2.866,-4.292 0.516,2.833 0.55,3.061 -0.326,5.028l2.197 -0.392z"/>
   <path class="fil15" d="M113.31 44.542c-0.328,4.717 0.74,4.948 3.76,6.498 -0.174,4.071 -1.536,3.078 1.466,3.697 -1.16,-2.041 -0.591,-3.171 1.045,-4.801l0.796 -0.603c-2.988,-0.781 -2.059,-3.07 -3.133,-4.495 -0.144,0.421 -0.496,1.534 -0.771,1.82 -3.103,3.233 3.009,-0.138 -0.776,0.578 -3.383,0.64 -0.458,-4.078 -0.399,-4.21 -1.843,0.928 -1.005,-1.067 -1.653,1.289l-0.335 0.227z"/>
   <path class="fil16" d="M102.353 42.119c2.201,0.472 2.642,0.911 4.406,-0.155 1.416,-0.856 1.45,-2.264 1.675,-3.694l-5.839 -0.873c-1.86,3.502 0.361,2.235 -2.476,3.172 0.167,0.121 0.444,0.067 0.526,0.327 0.481,1.526 0.52,-0.487 1.708,1.223z"/>
   <path class="fil14" d="M69.684 30.999c0.128,0.114 0.274,0.159 0.348,0.379 0.287,0.854 0.336,0.45 0.812,0.655 2.09,0.898 0.305,0.395 2.736,0.504l-2.65 -3.795c2.09,1.425 1.91,1.812 3.936,1.335 0.451,-2.638 0.524,-0.966 -0.554,-3.141 -1.589,-1.195 -3.18,-1.024 -5.5,-1.427l0.872 5.49z"/>
   <path class="fil9" d="M116.177 94.399c1.348,0.687 2.786,0.826 4.575,1.648 2.94,1.351 2.31,1.822 4.439,3.015 -0.611,-1.042 -0.36,-0.738 -0.708,-2.046 0.196,-0.105 1.214,-0.558 1.307,-0.607l0.842 -0.48c0.089,-0.05 0.277,-0.169 0.413,-0.258l-2.784 -0.163c0.864,-1.089 0.676,-1.342 2.485,-1.348 -1.739,-2.356 -0.636,-1.053 -4.325,-1.969 -1.844,2.063 0.56,0.781 -3.093,1.645 -1.816,0.429 -1.14,-0.023 -3.151,0.563z"/>
   <path class="fil9" d="M90.049 119.268l0.282 1.694 1.387 1.12c0.125,0.105 0.346,0.295 0.459,0.39 0.113,0.095 0.305,0.26 0.457,0.392l0.003 -2.434c2.484,-1.211 0.695,-0.578 3.695,-0.642 -1.138,4.944 1.017,5.187 3.318,7.64 -1.063,1.993 -0.197,0.892 -1.848,2.289l-2.779 -0.569c2.227,3.744 4.781,0.957 5.471,-1.72 -5.176,-5.455 -4.061,-3.143 -2.043,-8.896 -2.943,-0.413 -2.089,0.565 -3.68,-0.321l-0.839 -0.636c-0.767,1.401 -0.588,1.462 -1.943,2.244l-1.94 -0.551z"/>
   <path class="fil15" d="M110.679 58.138c0.743,1.923 0.237,1.055 1.808,2.683 3.626,0.107 4.452,-0.882 5.402,-4.359 -2.998,-0.877 -6.219,-1.572 -7.21,1.676z"/>
   <path class="fil4" d="M145.102 39.615c-0.169,2.822 -0.213,2.531 1.282,4.726l3.355 -0.246 2.539 -3.595c-3.378,-0.575 -2.937,-2.021 -7.176,-0.885z"/>
   <path class="fil2" d="M110.331 184.569c0.097,-1.828 -0.695,-0.574 0.438,-1.345 2.651,0.723 4.595,1.65 5.587,-1.591 1.016,-3.319 0.111,-4.889 -2.347,-5.692 1.249,2.023 0.776,1.067 1.702,2.997l-0.596 0.689c-0.083,0.089 -0.226,0.254 -0.322,0.351l-2.355 1.671c-1.252,0.404 -2.715,0.514 -4.017,-0.203l0.105 1.143c-0.002,0.151 -0.286,1.614 -0.345,1.821 1.21,0.655 0.359,0.059 2.15,0.159z"/>
   <path class="fil15" d="M122.108 63.885c-0.039,-3.428 2.741,-4.416 5.929,-5.373 -3.06,-1.061 -5.599,-0.606 -7.753,2.231l0.572 -3.955c-3.058,3.958 0.946,2.784 -3.469,5.26 -1.606,0.902 -0.788,0.381 -1.53,1.271 1.322,0.516 -1.236,0.886 2.119,-0.013 1.158,-0.31 1.293,-0.467 2.506,-0.719 0.111,0.123 0.321,0.111 0.38,0.325l1.246 0.973z"/>
   <path class="fil6" d="M129.332 76.657c1.301,2.623 4.488,0.983 5.194,-1.772 0.307,-1.197 0.297,-1.509 0.45,-2.612 -0.962,-2.123 -5.391,-0.211 -6.079,-0.407 1.069,1.697 -0.184,0.854 1.707,0.896 0.488,0.011 1.122,-0.521 2.334,0.27 -3.486,1.019 -0.955,1.066 -3.606,3.625z"/>
   <path class="fil2" d="M100.691 174.79c-0.08,-0.2 -0.2,-0.791 -0.244,-0.93 -1.253,-3.992 -2.472,1.193 -1.009,-3.299 0.529,-1.626 -1.486,1.387 0.732,-0.744l0.885 -1.983c1.374,-0.148 1.188,-0.267 1.736,-0.396 0.154,-0.037 0.6,-0.226 1.445,-0.303 -1.001,-2.116 -1.565,-0.888 -2.988,-4.334l-4.247 9.192 3.69 2.797z"/>
   <path class="fil2" d="M114.166 176.174l-1.83 -0.973c-7.622,-3.202 -3.251,-7.142 -8.1,-8.066 0.62,2.122 1.605,3.524 1.821,4.747 0.63,3.565 -0.104,0.581 -0.37,2.123 -0.419,2.44 3.147,1.547 3.721,1.603 3.26,0.312 1.464,0.862 4.758,0.566z"/>
   <path class="fil15" d="M71.214 61.762c3.555,0.405 0.909,1.713 5.77,3.212 -0.973,-2.615 -2.941,-4.774 -5.237,-5.584l0.54 -1.243c-4.167,0.255 -4.719,-0.783 -6.612,-2.878l-1.184 -1.372c0.894,3.759 3.587,6.146 7.332,6.656 -1.485,0.006 -0.018,-0.233 -0.609,1.209z"/>
   <path class="fil15" d="M91.549 25.258c0.715,0.455 -0.492,-0.528 0.956,0.701l3.948 4.098 0.576 -3.959c0.064,-0.14 0.231,-0.319 0.344,-0.479l-2.388 0.043c-2.762,-2.964 -3.097,-3.13 -3.998,-8.11 -1.111,3.396 -0.885,4.201 0.562,7.706z"/>
   <path class="fil8" d="M146.431 87.64l0.197 0.349c3.097,0.373 4.169,-0.606 6.116,-2.006 -0.675,-0.957 -0.522,-0.736 -1.445,-1.633l-1.727 -1.842 -0.995 0.338c-1.949,0.507 -0.741,-0.164 -2.291,0.995 1.292,1.211 0.913,0.931 3.049,1.238 -2.563,0.167 -3.152,-0.154 -2.904,2.561z"/>
   <path class="fil4" d="M53.56 40.695l0.688 2.057c0.675,-2.737 -0.173,-1.319 1.141,-1.931l0.716 3.302c4.385,-0.663 3.116,-4.476 1.563,-6.846 -2.57,0.817 -3.401,1.726 -4.108,3.418z"/>
   <path class="fil15" d="M106.233 49.643l-1.709 -3.608 4.302 0.124c0.614,1.4 -0.004,0.387 1.102,1.618 -1.148,1.25 -1.832,1.047 -2.303,1.312l-0.527 1.282c1.605,1.596 2.443,0.966 4.061,0.452l-0.467 -4.984c-0.897,-0.187 -0.39,0.418 -0.574,-0.643l-6.363 -0.128c0.031,1.637 -0.387,1.286 0.449,2.822 1.541,2.827 1.007,1.16 2.029,1.753z"/>
   <path class="fil12" d="M124.892 78.371c2.651,-1.129 1.503,-1.192 4.44,-1.714 2.651,-2.559 0.12,-2.606 3.606,-3.625 -1.212,-0.791 -1.846,-0.259 -2.334,-0.27 -1.891,-0.042 -0.638,0.801 -1.707,-0.896 0.688,0.196 5.117,-1.716 6.079,0.407 1.176,-0.803 0.475,0.926 1.132,-1.184 -3.364,-1.015 -6.466,-0.394 -8.785,1.013l0 4.456 -2.431 1.813z"/>
   <path class="fil15" d="M140.399 81.171l-0.254 -2.311c2.785,-2.187 2.178,-1.132 5.162,-2.59 -0.604,-0.42 -0.221,-0.556 -1.543,-0.794 -1.536,-0.276 -2.6,0.403 -3.855,0.996 -0.6,-0.794 -0.947,1.441 -0.377,-1.233l-4.915 2.818c0.89,0.867 -0.404,1.436 3.997,0.662l1.785 2.452z"/>
   <path class="fil15" d="M122.137 18.836l-0.266 1.55c-3.056,2.619 -2.983,4.957 0.04,6.979l0.044 2.785 1.026 0.816 0.308 -1.324c1.577,-2.872 -0.391,0.053 1.705,-1.991l0.881 -0.859 -2.197 0.392c0.876,-1.967 0.842,-2.195 0.326,-5.028 -0.083,3.057 0.177,3.61 -2.866,4.292 -1.409,-4.469 0.074,-4.054 2.582,-7.167 0.008,1.394 -0.22,0.012 1.273,0.647l-0.785 -2.296c-1.095,0.426 -1.493,0.959 -2.071,1.204z"/>
   <path class="fil2" d="M146.628 87.989c0.169,0.694 -1.079,2.955 4.437,0.743 1.872,-0.751 1.109,-0.783 3.667,-0.84 -1.423,-1.566 -0.984,-1.045 0.363,-2.557 -0.643,-0.817 -0.41,-0.149 -0.374,-1.604l-5.149 -1.223 1.727 1.842c0.923,0.897 0.77,0.676 1.445,1.633 -1.947,1.4 -3.019,2.379 -6.116,2.006z"/>
   <path class="fil7" d="M104.506 28.583c0.637,-1.568 0.4,-0.368 1.301,-1.073l-0.02 1.52c1.47,-2.338 1.397,-3.556 0.67,-5.977 -0.365,0.061 -1.444,0.17 -1.805,0.29 -0.956,0.319 -1.008,0.326 -1.42,0.653 -1.825,1.452 -1.185,1.48 -1.141,3.936 1.41,0.73 1.289,0.39 2.415,0.651z"/>
   <path class="fil9" d="M97.391 79.906c-1.28,1.119 -0.066,0.192 -2.104,0.779 -0.927,0.267 -0.611,-0.058 -1.622,0.514 -1.165,0.66 -0.461,0.353 -1.243,1.173 6.041,-1.806 6.53,0.082 11.712,0.434 -0.429,-2.941 0.041,-0.584 -1.184,-3.583 -1.7,-0.348 -0.502,0.075 -1.647,-0.601l-1.885 -1.368c0.886,2.6 1.224,2.038 2.09,3.499 -1.973,-0.175 -2.663,-0.4 -4.117,-0.847z"/>
   <path class="fil15" d="M38.728 81.263c2.044,-1.607 3.194,-2.526 6.41,-1.946 -0.181,0.137 -0.4,0.29 -0.567,0.376l-2.988 1.11 2.294 1.011c1.193,0.43 0.332,-0.09 1.47,0.704 -1.236,3.443 -3.144,2.218 -5.878,-0.386 -0.09,-0.086 -0.302,-0.169 -0.367,-0.42 -0.068,-0.262 -0.253,-0.296 -0.374,-0.449zm-0.487 -0.545l0 1.992c2.854,0.92 4.708,4.209 7.119,1.39 2.158,-2.523 -0.404,-0.698 2.384,-2.522 0.143,-0.093 0.386,-0.195 0.566,-0.314 -2.486,-0.356 -2.823,-1.568 -4.277,-2.864 -2.894,-0.057 -4.119,1.296 -5.792,2.318z"/>
   <path class="fil9" d="M83.234 85.774c3.006,2.485 1.355,-0.233 2.564,4.405 1.058,-0.932 1.637,1.348 1.442,-3.377l0.473 0.276c2.055,-1.218 0.513,-0.029 2.082,-1.988 1.329,-1.658 0.83,-0.676 1.639,-2.568l-1.871 0.448c-0.696,-2.669 0.127,-0.358 -1.336,-1.47 1.285,3.059 1.729,2.694 -0.771,4.215 -1.499,-2.242 -0.123,0.862 -0.492,-1.662 -0.028,-0.194 -0.112,-1.685 -0.178,-2.152 -1.333,1.983 -0.555,1.967 -1.572,3.769l-1.98 0.104z"/>
   <path class="fil15" d="M65.301 82.254c1.946,-0.688 0.806,0.15 2.037,-1.278 1.918,0.589 1.749,1.283 4.293,0.844 -0.85,-1.576 -0.945,-0.994 -2.245,-2.118 -3.539,0 3.041,-3.751 -3.788,-6.344 1.349,1.279 2.534,1.887 2.269,4.854 -4.666,0.818 -2.96,-1.075 -5.243,0l4.29 2.707c-2.884,0.73 -0.785,-0.112 -1.613,1.335z"/>
   <path class="fil15" d="M96.816 50.224c0.081,0.034 0.491,0.541 1.704,0.537 3.85,-0.016 2.561,-2.253 2.252,-5.126 -1.371,0.22 -2.553,0.222 -3.46,1.001 -1.844,1.578 -0.498,3.585 -0.496,3.588z"/>
   <path class="fil6" d="M38.728 81.263c0.121,0.153 0.306,0.187 0.374,0.449 0.065,0.251 0.277,0.334 0.367,0.42 2.734,2.604 4.642,3.829 5.878,0.386 -1.138,-0.794 -0.277,-0.274 -1.47,-0.704l-2.294 -1.011 2.988 -1.11c0.167,-0.086 0.386,-0.239 0.567,-0.376 -3.216,-0.58 -4.366,0.339 -6.41,1.946z"/>
   <path class="fil8" d="M125.191 99.062c2.589,0.107 3.476,-1.048 5.202,-1.764 -0.666,-1.551 0.38,-0.801 -1.52,-2.275 -1.024,-0.794 -1.141,-0.592 -2.127,-0.863 -1.809,0.006 -1.621,0.259 -2.485,1.348l2.784 0.163c-0.136,0.089 -0.324,0.208 -0.413,0.258l-0.842 0.48c-0.093,0.049 -1.111,0.502 -1.307,0.607 0.348,1.308 0.097,1.004 0.708,2.046z"/>
   <path class="fil12" d="M110.769 67.524c2.889,-0.129 1.8,1.174 2.125,-1.954l0.644 1.883c0.356,-1.274 2.733,-5.805 -4.23,-4.44 0.018,1.952 -0.157,2.911 1.461,4.511z"/>
   <path class="fil14" d="M87.927 26.847c2.613,2.425 3.304,1.505 7.081,1.739 0.068,5.275 1.403,4.56 2.281,5.028l-0.199 -2.67 0.331 0.105c-1.186,-0.573 -0.902,0.871 -0.968,-0.992l-3.948 -4.098c-1.448,-1.229 -0.241,-0.246 -0.956,-0.701l-1.204 1.38c-1.941,-0.761 -2.23,0.632 -1.88,-1.561l-0.538 1.77z"/>
   <path class="fil15" d="M75.148 50.683l-0.681 3.376 4.754 -0.663c0.153,-2.883 -0.061,-2.271 -0.419,-4.812 -3.391,0.856 -1.457,0.283 -3.654,2.099z"/>
   <path class="fil15" d="M88.133 61.379c0.964,1.848 0.875,3.633 4.992,1.687 2.055,-0.971 1.588,-0.631 3.849,-0.071 -3.735,-6.357 0.319,-2.283 -2.414,-6.569l0.249 2.359c-1.891,1.581 -1.023,1.095 -3.616,1.156 1.076,1.718 1.149,0.914 1.434,2.632 -1.794,0.232 -3.66,0.016 -3.959,-0.851 -0.093,-0.268 -0.35,-0.239 -0.535,-0.343z"/>
   <path class="fil13" d="M106.703 83.347c0.922,0.584 -1.196,0.41 2.085,0.955 2.084,0.347 1.65,0.118 3.328,-0.292l-0.097 -0.945 -1.747 0.126c0.59,-4.552 1.366,0.047 1.152,-3.909 3.548,0.381 0.484,-0.196 1.915,1.252 0.979,-0.712 1.113,1.257 0.669,-1.654l-1.3 -0.163c-8.228,1.163 -1.596,3.456 -6.005,4.63z"/>
   <path class="fil11" d="M136.829 66.259c2.738,2.228 1.58,2.462 4.184,3.928l-0.617 -0.789c-0.082,-0.095 -0.235,-0.251 -0.325,-0.354l-1.444 -1.84c1.736,-4.906 4.291,-3.303 8.455,-4.99 -5.001,-0.563 -8.157,-0.771 -10.253,4.045z"/>
   <path class="fil13" d="M123.079 106.97c2.547,3.441 1.294,0.533 2.583,4.803 0.57,1.89 1.839,2.748 2.87,5.107 1.046,1.887 0.129,0.666 1.454,1.921 -0.564,-2.041 -1.485,-3.639 -1.925,-5.278 -0.917,-3.421 -1.604,-4.454 -2.126,-6.26l-1.826 -0.55 -1.03 0.257z"/>
   <path class="fil2" d="M147.405 81.178c1.888,-0.638 0.793,-0.971 2.092,-1.144 1.636,-0.216 -1.387,0.763 2.331,0.257 0.531,-4.42 1.978,-5.887 -2.985,-6.243l2.21 2.869c-4.305,3.003 -3.221,2.139 -3.648,4.261z"/>
   <path class="fil6" d="M103.948 70.322l0.295 0.123c-0.011,2.01 -0.488,2.52 1.08,3.12 4.475,-1.689 0.261,-0.141 2.208,-3.966 2.062,0.824 0.487,-1.299 1.918,1.877l-0.62 -1.835c-0.249,-1.466 -1.53,-1.688 -2.946,-2.812 -0.177,0.622 -0.344,1.499 -0.633,2.027 -1.024,1.875 -0.439,0.727 -1.302,1.466z"/>
   <path class="fil3" d="M83.293 94.619c0.056,0.029 -0.738,1.33 2.082,0.484 1.23,-0.369 1.251,-0.824 1.959,-1.997 -0.957,-1.813 0.217,-1.006 -1.78,-2.022 -0.96,-0.488 -1.702,-0.445 -2.789,-0.597 -0.129,2.473 -0.374,2.224 0.528,4.132z"/>
   <path class="fil12" d="M105.323 73.565c0.148,0.13 0.375,0.118 0.458,0.372 0.242,0.739 1.894,0.203 2.846,2.85 -0.537,-5.312 -0.229,-1.368 1.428,-3.852 1.983,-2.975 -0.341,-2.63 -1.226,-3.294l0.62 1.835c-1.431,-3.176 0.144,-1.053 -1.918,-1.877 -1.947,3.825 2.267,2.277 -2.208,3.966z"/>
   <path class="fil15" d="M69.684 30.999c0.417,0.813 0.723,1.454 1.052,2.031 2.177,0.353 3.469,0.081 5.711,0.989l0.546 -1.312c-0.977,-0.844 -1.044,-0.801 -1.708,-1.255 0.456,-1.058 0.792,-1.049 0.585,-2.41 -0.328,-2.148 -1.15,-1.783 -1.558,-2.106 1.078,2.175 1.005,0.503 0.554,3.141 -2.026,0.477 -1.846,0.09 -3.936,-1.335l2.65 3.795c-2.431,-0.109 -0.646,0.394 -2.736,-0.504 -0.476,-0.205 -0.525,0.199 -0.812,-0.655 -0.074,-0.22 -0.22,-0.265 -0.348,-0.379z"/>
   <path class="fil15" d="M50.906 78l1.533 -0.602c0.743,0.71 0.913,0.94 1.397,1.404 1.522,1.462 0.055,0.587 1.839,1.385 -0.437,-1.827 0.046,-0.704 -0.87,-2.22l-2.047 -2.489c1.839,-0.695 0.785,0.596 1.771,-1.696 -2.879,2.054 -4.127,1.18 -6.773,-1.46 0.351,3.128 0.78,3.286 3.85,4.013l-0.7 1.665z"/>
   <path class="fil13" d="M55.856 88.566c0.769,-1.525 0.752,2.139 0.719,-2.322l3.356 -0.083 0.144 -1.545 -3.565 0.073c-2.114,-0.442 -5.309,-1.288 -6.372,1.019 0.96,-0.071 2.833,-0.377 3.679,-0.149 2.28,0.61 1.688,0.881 2.039,3.007z"/>
   <path class="fil12" d="M97.978 69.474l0.522 -3.865c-2.769,-0.134 -2.863,-0.119 -4.642,1.181 0.302,2.965 1.235,3.111 4.12,2.684z"/>
   <path class="fil13" d="M66.734 91.667c1.827,-1.612 1.663,-0.836 1.322,-3.831l2.736 -1.048c-0.144,-0.102 -0.401,-0.52 -0.502,-0.343l-1.49 -0.512c-1.066,-0.26 -0.662,1.305 -0.935,-0.306l-1.22 0c-1.715,2.108 -1.93,0.223 -3.923,3.189 2.496,-0.456 1.806,-0.73 4.533,-0.242 0.076,1.463 -0.136,2.018 -0.521,3.093z"/>
   <path class="fil15" d="M81.751 47.073c2.032,0.355 1.89,0.556 2.735,1.996 1.817,0.744 0.192,0.335 2.241,0.563 -0.48,-2.579 -0.854,-1.662 -1.716,-4.256l-1.17 0.419c-0.533,-2.578 -0.254,-2 -1.566,-3.378 -0.811,1.671 -0.146,0.652 -0.126,2.257 0.029,2.218 0.464,0.013 -0.398,2.399z"/>
   <path class="fil5" d="M104.379 156.966l-0.046 0.082c2.041,2.034 4.302,3.106 8.199,3.064 -1.754,-1.038 -5.646,-3.63 -7.591,-5.136 -0.866,0.965 -0.324,-0.435 -0.562,1.99z"/>
   <path class="fil8" d="M74.304 94.205l2.536 -1.099c-0.421,-0.683 0.933,-0.989 -2.979,-0.881l2.241 -1.488c1.227,-0.943 0.223,0.897 0.485,-0.795 -0.592,-2.701 -4.942,2.08 -5.248,2.517l2.965 1.746z"/>
   <path class="fil3" d="M133.622 97.988l3.907 0.423c-0.223,-2.26 -0.677,-3.076 -1.881,-4.257l-3.179 1.188c0.047,0.117 0.12,0.322 0.172,0.452 0.906,2.269 -0.591,0.199 0.981,2.194z"/>
   <path class="fil13" d="M90.391 161.27c1.849,-0.911 0.653,-0.01 1.512,-1.46 0.107,-0.179 0.353,-0.908 0.419,-1.057 0.065,-0.15 0.408,-0.985 0.514,-1.173 -2.136,0.7 -6.381,1.617 -7.851,3.012 2.747,1.126 4.941,-0.152 5.406,0.678z"/>
   <path class="fil11" d="M73.681 57.137l5.54 -3.741 -4.754 0.663 0.681 -3.376c-2.581,0.778 -0.451,0.896 -3.23,-0.026 1.205,2.262 1.858,3.121 1.763,6.48z"/>
   <path class="fil8" d="M122.503 82.217c2.556,0.64 1.714,0.765 3.114,-0.652 -0.522,2.209 0.304,0.972 -1.947,2.173 2.047,0.252 1.974,0.103 3.196,-0.771l0.61 -3.591 -4.07 0.492 -0.903 2.349z"/>
   <path class="fil15" d="M77.185 76.5c3.768,0.752 1.619,0.701 4.512,2.054 -0.892,-1.97 0.285,-0.939 -1.787,-1.917l0.188 -2.937c-0.668,1.027 -0.499,-1.57 -1.057,2.284 0.867,-2.192 -0.933,-4.007 -3.517,-4.652 1.6,2.339 1.954,2.395 1.661,5.168z"/>
   <path class="fil4" d="M106.233 49.643c0.198,1.009 -0.375,0.536 0.865,0.728l0.527 -1.282c0.471,-0.265 1.155,-0.062 2.303,-1.312 -1.106,-1.231 -0.488,-0.218 -1.102,-1.618l-4.302 -0.124 1.709 3.608z"/>
   <path class="fil16" d="M104.506 28.583c-1.176,1.688 -0.612,1.473 -3.217,1.456l2.254 0.596c-1.641,1.036 0.503,-1.058 -1.531,2.132 0.383,4.254 -0.051,0.949 0.986,2.201l1.195 -3.044 2.707 -0.009 0 -1.231 -2.407 0.728c1.139,-2.566 -0.925,-0.172 1.294,-2.382l0.02 -1.52c-0.901,0.705 -0.664,-0.495 -1.301,1.073z"/>
   <path class="fil12" d="M111.619 75.556c1.071,1.2 1.249,1.567 3.59,1.079l0.856 -3.753 -2.718 0.53 -1.705 0.369 -0.023 1.775z"/>
   <path class="fil15" d="M61.557 69.549c2.22,-0.948 1.191,-0.939 3.237,-1.285 2.042,-0.346 1.11,0.541 3.044,-0.413 -5.136,-2.382 -1.107,-0.821 -3.952,-4.046l-0.306 2.025c-1.523,-0.707 -0.428,-0.48 -1.372,0.213 0.299,2.845 0.585,0.875 -0.651,3.506z"/>
   <path class="fil8" d="M74.772 82.61l0.284 2.387 2.055 0.666 0.274 -2.588 0.413 2.214 1.168 -0.492 0.036 -1.849c-0.78,-0.592 -1.546,-1.162 -2.555,-1.759l-1.269 1.087c-0.077,0.064 -0.277,0.215 -0.406,0.334z"/>
   <path class="fil13" d="M74.304 94.205c0.832,1 -0.238,0.761 1.428,0.642 1.589,-0.113 2.001,-1.756 2.563,-2.354 0.094,-0.101 0.243,-0.221 0.343,-0.316l1.286 -1.038 -3.337 -1.197c-0.262,1.692 0.742,-0.148 -0.485,0.795l-2.241 1.488c3.912,-0.108 2.558,0.198 2.979,0.881l-2.536 1.099z"/>
   <path class="fil15" d="M111.286 33.905l0.086 1.565 -0.727 2.626 1.736 -0.66c1.032,-2.111 0.068,-1.039 2.093,-1.955 -0.69,-1.974 -0.722,-0.962 -0.396,-3.055 0.379,-2.422 0.556,-1.409 0.953,-1.9 -3.107,0.6 -1.183,3.599 -3.745,3.379z"/>
   <path class="fil13" d="M95.721 181.178c-1.382,1.874 -1.112,-2.544 -1.433,2.509l0.715 -2.229c-1.535,1.252 -2.596,2.404 -4.694,3.603 1.477,0.67 1.737,0.221 3.623,-0.54 0.689,1.279 0.105,1.46 1.528,1.444l0.261 -4.787z"/>
   <path class="fil3" d="M138.352 83.095c-1.075,-2.49 -1.679,-3.146 -4.346,-2.415l-0.082 2.926c2.157,0.301 2.765,-0.077 4.428,-0.511z"/>
   <path class="fil5" d="M72.156 167.579c-2.133,1.32 -1.155,1.787 -1.183,2.33l-0.673 2.871c1.889,-0.094 2.736,-0.628 4.153,-1.171l0.256 -0.15c-0.271,-0.344 -3.189,1.058 0.03,-3.041 1.944,-2.473 1.272,-1.039 1.711,-0.845 -0.221,0.236 -1.099,0.913 -1.756,1.045 -2.566,0.519 -1.35,1.274 -2.538,-1.039z"/>
   <path class="fil16" d="M66.618 43.094l0 1.182 3.357 -0.303c0.903,0.718 0.981,0.879 2.52,1.119l-1.331 -3.143 -3.246 -0.652 -1.187 -1.942c0.598,1.31 1.221,2.667 2.555,3.81 -2.573,0.702 0.069,0.724 -2.668,-0.071z"/>
   <path class="fil2" d="M112.381 37.436l0.978 1.914c2.821,-2.329 2.928,-2.191 3.48,-3.687l-2.365 -0.182c-2.025,0.916 -1.061,-0.156 -2.093,1.955z"/>
   <path class="fil15" d="M89.569 75.466c0.2,0.095 0.493,0.008 0.598,0.291 0.1,0.269 0.429,0.207 0.562,0.287l2.712 1.598c-0.527,-2.279 0.247,-1.01 -1.286,-2.078l-0.086 -2.286 -2.697 -0.241 0.197 2.429z"/>
   <path class="fil8" d="M112.019 83.065c0.537,-0.258 0.645,0.09 1.123,-0.404l0.197 -2.127c-1.431,-1.448 1.633,-0.871 -1.915,-1.252 0.214,3.956 -0.562,-0.643 -1.152,3.909l1.747 -0.126z"/>
   <path class="fil15" d="M56.105 44.123l-0.716 -3.302c-1.314,0.612 -0.466,-0.806 -1.141,1.931l-0.688 -2.057c-0.851,0.732 -0.895,-1.288 -0.833,1.902l0.741 0.976 2.637 0.55z"/>
   <path class="fil9" d="M75.056 84.997c0.11,0.165 0.285,0.201 0.352,0.478l2.034 2.491c1.303,-1.314 0.691,-0.023 1.524,-3.169l-1.168 0.492 -0.413 -2.214 -0.274 2.588 -2.055 -0.666z"/>
   <path class="fil9" d="M105.163 161.672c0.359,-0.844 -0.833,-0.752 1.399,-0.511l-3.332 -2.487c0.428,1.59 1.24,2.143 1.933,2.998z"/>
   <path class="fil15" d="M131.243 59.296l2.753 -1.775 -3.116 -1.126c3.048,1.969 0.279,0.003 1.525,1.743 -1.119,0.525 -1.031,1.025 -1.162,1.158z"/>
  </g>
 </g>
</svg>
